<svg width="167" height="40" viewBox="0 0 167 40" fill="none" xmlns="http://www.w3.org/2000/svg">
<g clip-path="url(#clip0_603_80)">
<path d="M68.249 25.74C68.249 23.565 69.395 22.799 71.524 22.517L73.817 22.154V26.705C73.4514 27.2365 72.9626 27.6718 72.3923 27.9735C71.822 28.2753 71.1872 28.4347 70.542 28.438C69.068 28.438 68.249 27.551 68.249 25.738M71.483 14.5C73.283 14.5 73.817 15.387 73.817 16.836V18.769L71.074 19.169C65.383 19.969 62.846 21.669 62.846 26.178C62.846 30.286 64.446 32.703 68.414 32.703C71.156 32.703 72.834 31.978 74.268 30.125L74.514 32.26H79.349L79.226 26.701V17.282C79.226 12.287 77.506 10.475 71.571 10.475C65.061 10.475 63.587 12.892 63.587 17L69.073 17.644C69.073 15.309 69.773 14.503 71.488 14.503M49.907 15.349H52.445V26.867C52.445 30.573 54.288 32.708 58.668 32.708C59.8485 32.7681 61.0297 32.6039 62.149 32.224L61.862 27.834C61.191 28.0688 60.4859 28.1915 59.775 28.197C58.587 28.197 57.81 27.754 57.81 26.183V15.349H62.273V10.918H57.805V5.19797L52.442 5.27897V10.918H49.904L49.907 15.349ZM47.288 15.59C47.7571 15.574 48.226 15.6282 48.679 15.751L48.966 10.878C48.4321 10.5718 47.8188 10.4325 47.205 10.478C46.2857 10.4982 45.3891 10.7673 44.6106 11.2566C43.832 11.746 43.2008 12.4373 42.784 13.257L42.498 10.921H37.708L37.831 16.479V32.261H43.231V17.524C43.72 16.9199 44.3377 16.4328 45.0391 16.0981C45.7405 15.7635 46.5079 15.5899 47.285 15.59M25.341 25.74C25.341 23.565 26.486 22.799 28.616 22.517L30.908 22.154V26.705C30.5424 27.2365 30.0536 27.6718 29.4833 27.9735C28.913 28.2753 28.2782 28.4347 27.633 28.438C26.159 28.438 25.341 27.551 25.341 25.738M28.575 14.5C30.375 14.5 30.908 15.387 30.908 16.836V18.769L28.166 19.169C22.475 19.969 19.937 21.669 19.937 26.178C19.937 30.286 21.537 32.703 25.505 32.703C28.248 32.703 29.927 31.978 31.359 30.125L31.605 32.26H36.437L36.314 26.701V17.282C36.314 12.287 34.594 10.475 28.658 10.475C22.149 10.475 20.675 12.892 20.675 17L26.16 17.644C26.16 15.309 26.86 14.503 28.576 14.503M5.56802 16.561C5.56802 8.82797 6.34602 5.16097 9.74402 5.16097C12.733 5.16097 13.551 6.40997 13.592 10.72L19.078 9.99497C18.995 3.34897 17.113 0.409973 9.86602 0.409973C3.11102 0.409973 -0.000976562 4.23597 -0.000976562 16.561C-0.000976562 28.886 3.11102 32.713 9.86602 32.713C17.112 32.713 18.995 29.772 19.078 23.086L13.592 22.401C13.551 26.711 12.733 27.96 9.74402 27.96C6.34402 27.96 5.56802 24.294 5.56802 16.56" fill="#DB0100"/>
<path d="M134.67 10.799H132.07V31.999H134.67V10.799ZM84.076 16.399C84.076 6.75899 84.929 2.75899 90.01 2.75899C94.11 2.75899 94.927 4.63999 94.967 9.31898L97.649 8.91899C97.649 3.31899 96.186 0.398985 90.049 0.398985C83.384 0.398985 81.392 4.51799 81.392 16.399C81.392 28.28 83.384 32.399 90.049 32.399C96.185 32.399 97.649 29.479 97.649 23.878L94.967 23.478C94.927 28.158 94.114 30.038 90.01 30.038C84.93 30.038 84.076 26.039 84.076 16.399ZM110.328 27.358C109.744 28.2154 108.963 28.9206 108.051 29.4147C107.139 29.9087 106.122 30.1773 105.085 30.198C102.891 30.198 101.468 29.198 101.468 26.118C101.468 22.678 103.378 21.718 106.832 21.238L110.327 20.757L110.328 27.358ZM110.775 31.998H113.047L112.925 27.358V16.28C112.885 12.4 111.218 10.4 106.342 10.4C101.262 10.4 99.637 12.48 99.637 16.2L102.319 16.56C102.319 13.72 103.376 12.44 106.343 12.44C109.269 12.44 110.325 13.8 110.325 15.96V18.84L106.546 19.321C101.384 20.001 98.784 21.841 98.784 26.241C98.784 29.801 100.328 32.401 104.311 32.401C105.517 32.4713 106.721 32.2326 107.809 31.7076C108.897 31.1827 109.833 30.3887 110.529 29.401L110.775 31.998ZM127.6 21.398C127.6 26.877 126.827 30.078 123.007 30.078C120.935 30.078 119.431 28.917 118.007 27.078V15.72C119.429 13.88 120.934 12.72 123.007 12.72C126.827 12.72 127.6 15.92 127.6 21.401M130.322 21.401C130.322 14.48 128.822 10.401 123.495 10.401C122.372 10.386 121.262 10.6528 120.269 11.1768C119.275 11.7009 118.428 12.4655 117.806 13.401L117.562 10.801H115.286L115.367 15.441V40H118.008V29.68C118.637 30.5402 119.464 31.2364 120.419 31.7098C121.374 32.1832 122.428 32.4199 123.494 32.4C128.818 32.4 130.321 28.32 130.321 21.4M131.821 5.19999H134.91V2.15799H131.821V5.19999ZM141.859 13H146.574V10.8H141.859V4.99998L139.259 5.19999V10.8H136.739V13H139.259V28.158C139.259 30.797 140.519 32.398 143.81 32.398C144.681 32.4174 145.548 32.282 146.371 31.998L146.171 29.758C145.518 29.9884 144.831 30.11 144.139 30.118C142.798 30.118 141.863 29.718 141.863 27.798L141.859 13ZM158.808 27.358C158.224 28.2152 157.444 28.9204 156.532 29.4144C155.62 29.9085 154.603 30.1772 153.566 30.198C151.366 30.198 149.948 29.198 149.948 26.118C149.948 22.678 151.858 21.718 155.312 21.238L158.807 20.757L158.808 27.358ZM159.255 31.998H161.531L161.409 27.358V16.28C161.369 12.4 159.702 10.4 154.826 10.4C149.747 10.4 148.121 12.48 148.121 16.2L150.803 16.56C150.803 13.72 151.86 12.44 154.827 12.44C157.754 12.44 158.809 13.8 158.809 15.96V18.84L155.03 19.321C149.869 20.001 147.268 21.841 147.268 26.241C147.268 29.801 148.812 32.401 152.795 32.401C154.001 32.4713 155.205 32.2326 156.293 31.7076C157.381 31.1827 158.317 30.3887 159.013 29.401L159.255 31.998ZM166.164 -0.00201416H163.564V31.998H166.164V-0.00201416Z" fill="white"/>
</g>
<defs>
<clipPath id="clip0_603_80">
<rect width="166.164" height="40" fill="white"/>
</clipPath>
</defs>
</svg>
