<svg width="1213" height="280" viewBox="0 0 1213 280" fill="none" xmlns="http://www.w3.org/2000/svg">
<rect width="1213" height="280" fill="#EAE8E8"/>
<path d="M116.315 57.0372C114.543 63.2594 113.656 63.2594 103.465 58.3333C75.7709 44.8519 54.5019 66.6297 48.52 114.593C40.7658 176.037 67.795 219.333 103.465 203.519C113.213 199.111 113.878 199.111 116.537 203.519C118.309 206.111 120.968 207.408 122.962 206.37C128.279 204.036 126.95 162.556 121.411 161.259C118.531 160.482 116.98 163.333 114.986 172.407C110.333 193.667 91.5012 200.667 78.2081 186.148C63.1424 169.556 62.4778 102.407 77.5434 77.7778C86.6271 62.7408 104.794 66.6297 112.992 85.5556C116.094 92.8149 118.974 95.9261 121.411 95.4075C124.513 94.6297 125.399 91 125.842 73.1111C126.507 53.4075 126.063 51.8519 122.075 51.8519C119.638 51.8519 117.201 54.1853 116.315 57.0372Z" fill="black"/>
<path d="M157.081 60.4075C141.572 72.5927 133.596 103.185 135.812 142.852C137.363 172.148 140.686 183.556 150.656 194.703C164.392 210 185.218 210.259 197.847 195.222C207.817 183.037 211.14 169.815 212.247 138.704C213.799 95.1483 206.265 67.9261 190.536 58.3333C180.787 52.3705 165.943 53.4075 157.081 60.4075ZM182.337 72.8519C190.757 80.3705 193.636 95.4075 193.636 133.519C193.859 163.593 193.194 168.259 188.763 178.111C183.889 189 177.684 193.407 169.044 191.333C166.829 191.074 162.62 184.852 159.518 177.593C154.422 165.926 153.979 161.778 154.201 133.519C154.201 99.0372 157.081 82.963 165.057 73.6297C171.482 66.1111 175.026 65.8519 182.337 72.8519Z" fill="black"/>
<path d="M555.654 58.3333C542.139 67.1483 533.941 94.3705 533.941 132.482C533.941 164.37 538.372 182 549.451 194.964C557.204 204.036 558.756 204.814 570.72 204.814C596.862 204.814 609.047 185.63 611.041 141.037C612.814 100.593 605.282 69.7408 590.88 59.6297C582.461 53.4075 564.515 52.8889 555.654 58.3333ZM582.461 74.1483C589.551 84.7778 591.766 98.7778 591.766 133C591.989 165.926 589.995 176.296 582.24 185.889C571.162 199.889 558.312 189.778 553.66 163.852C550.78 146.741 552.109 98.5186 556.097 86.8519C562.3 67.9261 574.485 62.2222 582.461 74.1483Z" fill="black"/>
<path d="M761.918 60.4077C745.746 72.8521 736.884 113.815 741.758 152.963C746.189 189.519 757.266 205.333 778.535 205.852C793.822 206.111 803.571 199.111 810.217 183.556C816.643 168.519 819.523 139.222 817.085 110.963C813.984 73.3707 801.577 54.4446 779.864 54.4446C772.776 54.4446 767.015 56.2596 761.918 60.4077ZM784.96 69.741C793.157 73.3707 797.81 90.4818 799.139 121.852C801.133 166.963 793.822 192.63 778.757 192.63C765.464 192.371 759.039 172.926 759.26 132.222C759.26 100.852 763.912 77.5188 771.446 71.2966C777.205 66.6299 777.87 66.6299 784.96 69.741Z" fill="black"/>
<path d="M967.077 59.3705C952.898 69.4816 945.364 94.3705 945.364 132.222C945.143 164.63 950.017 183.296 961.76 195.741C969.514 203.778 971.729 204.814 983.25 204.814C999.201 204.814 1008.06 198.853 1014.27 183.556C1023.79 161 1026.01 128.852 1020.25 97.7408C1016.48 77 1010.06 63.5186 1001.42 58.3333C992.555 52.8889 975.274 53.4075 967.077 59.3705ZM992.113 71.2964C1000.53 78.2964 1004.08 99.8149 1003.19 136.889C1002.52 173.704 998.759 185.63 987.238 190.556C979.705 193.667 975.274 190.556 969.292 178.63C965.304 170.852 964.862 165.148 964.862 130.926C964.862 95.9261 965.304 91 969.735 81.1483C976.382 66.8889 982.808 64.0372 992.113 71.2964Z" fill="black"/>
<path d="M1128.59 59.3705C1124.16 62.4816 1119.06 70.2594 1115.3 79.5927C1109.53 93.0741 1108.87 98 1107.98 124.704C1107.1 162.815 1110.86 180.704 1123.27 194.964C1131.03 204.036 1132.58 204.814 1144.54 204.814C1162.26 204.814 1170.68 198.592 1178.22 179.407C1183.76 165.667 1184.2 162.296 1183.98 130.926C1183.98 101.37 1183.31 95.4075 1178.44 81.6667C1171.57 61.963 1162.93 54.4444 1146.76 54.4444C1139.44 54.4444 1133.02 56.2594 1128.59 59.3705ZM1155.17 72.3333C1162.71 81.9261 1165.14 96.1853 1165.37 129.889C1165.37 164.111 1163.37 176.296 1155.84 185.889C1150.3 193.148 1140.77 193.667 1135.68 186.926C1126.37 174.741 1122.16 127.037 1127.92 95.9261C1132.13 72.3333 1146.09 60.4075 1155.17 72.3333Z" fill="black"/>
<path d="M221.552 63C221.552 66.1111 223.546 70.2594 225.984 72.0741C230.415 75.1852 230.415 77.5186 229.971 131.704C229.307 187.444 229.307 187.963 224.211 190.556C220.887 192.111 219.337 194.964 219.781 198.333C220.445 203 222.439 203.519 239.941 204.297C258.773 205.075 259.216 204.814 259.216 199.111C259.216 195.222 257.222 192.111 254.343 190.556C249.69 188.222 249.247 186.148 248.582 162.556L247.917 137.407H257.666C273.174 137.407 276.941 144.148 276.941 171.63C276.941 197.814 279.821 203 295.329 203.259C303.305 203.519 304.634 202.741 305.299 197.814C305.742 194.185 304.634 191.852 301.755 190.815C296.437 188.741 294.664 182 294.664 163.852C294.664 149.333 290.455 136.371 284.917 134.037C282.258 132.741 282.923 130.926 288.018 124.704C294.222 117.704 294.664 115.63 294.664 98.5186C294.664 78.2964 290.676 64.0372 284.03 59.8889C281.371 58.3333 266.971 57.0372 250.576 57.0372C221.996 57.0372 221.552 57.0372 221.552 63ZM269.407 74.6667C277.162 80.6297 279.6 105.778 273.395 116.148C270.737 120.815 267.857 121.852 258.995 121.852H248.138V97.2222V72.5927H257.666C262.761 72.5927 268.078 73.6297 269.407 74.6667Z" fill="black"/>
<path d="M312.389 63.2594C312.389 67.4077 313.939 70.2594 316.821 71.2966C321.03 72.8521 321.251 75.1854 321.251 131.445C321.251 187.445 321.03 189.778 316.821 191.074C313.939 192.111 312.389 194.703 312.389 198.852C312.389 205.075 312.61 205.075 331.885 204.297C349.61 203.519 351.16 203 351.825 198.075C352.269 193.926 350.939 192.111 346.951 190.815C341.19 189.26 341.19 188.741 341.19 163.334V137.408H350.054C356.7 137.408 360.465 139.222 364.453 143.889C369.55 149.593 369.993 152.185 369.993 171.63C369.993 195.741 370.879 198.075 379.52 201.964C390.154 206.889 396.58 205.592 396.58 198.852C396.58 195.741 394.586 191.593 392.369 190.037C389.046 187.445 387.939 183.037 387.495 166.185C386.61 147.778 385.945 144.408 380.628 138.445L374.867 131.445L380.405 126C384.837 121.334 386.166 117.445 387.052 103.445C388.381 83.2224 385.28 69.4816 377.305 62.2224C372.208 57.5557 368.441 57.0372 342.078 57.0372H312.389V63.2594ZM363.789 77.0002C371.1 86.8521 371.323 109.667 364.011 117.963C362.238 120.297 356.7 121.852 350.939 121.852H341.19V97.2224V72.5927H350.718C357.142 72.5927 361.574 74.1483 363.789 77.0002Z" fill="black"/>
<path d="M405.441 63C405.441 66.6297 407.435 69.7408 410.537 71.2964C415.411 73.8889 415.411 74.1483 415.411 130.926V187.963L410.537 188.741C406.549 189.519 405.441 191.333 405.441 197.297V204.814H439.782H474.122V186.667C474.122 169.037 473.901 168.519 468.804 168.519C464.152 168.519 463.266 169.815 462.601 178.111L461.937 187.963L448.2 188.741L434.242 189.519V163.333V137.407H446.429C458.393 137.407 458.614 137.407 458.614 129.63C458.614 121.852 458.393 121.852 446.429 121.852H434.242V95.9261V70H445.099C460.608 70 463.045 71.5556 463.045 81.9261C463.045 89.7038 463.71 90.7408 468.583 90.7408C473.901 90.7408 474.122 90.2222 474.122 73.8889V57.0372H439.782C405.662 57.0372 405.441 57.0372 405.441 63Z" fill="black"/>
<path d="M485.2 63.2594C485.2 67.1483 486.75 70 489.632 70.7778C493.841 72.0741 494.062 74.4075 494.062 130.667C494.062 187.444 493.841 189.259 489.632 189.259C486.086 189.259 485.2 191.074 485.2 197.036V204.814H504.032H522.865V197.036C522.865 192.63 522.2 189.519 521.313 189.519C514.224 190.815 514.001 189 514.001 130.667C514.001 74.4075 514.224 72.0741 518.433 70.7778C521.313 70 522.865 67.1483 522.865 63.2594C522.865 57.2964 522.421 57.0372 504.032 57.0372C485.644 57.0372 485.2 57.2964 485.2 63.2594Z" fill="black"/>
<path d="M655.796 63.7778C655.796 68.1852 657.125 71.0372 660.226 71.8149C664.436 73.1111 664.657 75.4444 664.657 130.148C664.657 184.852 664.436 187.185 660.226 188.482C657.125 189.519 655.796 192.111 655.796 197.297V204.814H671.304C705.202 204.814 722.926 193.667 729.129 168.519C733.782 149.074 732.453 105 726.914 87.8889C718.938 63.5186 708.968 57.2964 676.4 57.0372H655.796V63.7778ZM699.22 74.9261C709.41 82.1853 712.292 94.3705 712.292 130.926C712.292 174.741 706.752 189.259 690.8 189.259H684.597V129.63C684.597 63.2594 684.376 64.2964 699.22 74.9261Z" fill="black"/>
<path d="M864.055 63.2596C864.055 67.1485 865.605 70.0002 868.486 70.778C872.695 72.0743 872.916 74.4077 872.916 130.667C872.916 187.445 872.695 189.26 868.486 189.26C865.163 189.26 864.055 191.074 864.055 195.741C864.055 202.222 864.276 202.222 884.215 202.222C903.713 202.222 904.155 201.964 903.49 196.259C903.048 192.63 901.055 190.297 897.952 189.778C893.3 189 892.856 187.704 892.856 170.074V151.148L907.257 149.593C925.203 147.519 928.97 145.185 933.844 133.26C938.94 120.556 937.832 79.3335 932.071 68.9632C926.311 58.8521 920.107 57.0374 890.42 57.0374C864.055 57.0374 864.055 57.0374 864.055 63.2596ZM912.354 76.4818C921.436 89.9632 920.33 126 910.581 132.222C908.366 133.519 903.49 134.815 899.725 134.815H892.856V102.408V70.0002H900.39C905.928 70.0002 909.251 71.8151 912.354 76.4818Z" fill="black"/>
<path d="M1019.14 63.2594C1019.14 67.1483 1020.69 70.2594 1023.13 71.0372C1026.45 72.3335 1029.78 85.5558 1040.41 136.889L1053.48 200.925L1064.56 201.703L1075.86 202.481L1088.71 140.778C1102.45 74.9261 1104 70.0002 1108.87 70.0002C1110.86 70.0002 1112.19 67.4077 1112.19 63.5188C1112.19 57.0372 1111.97 57.0372 1094.47 57.0372C1076.97 57.0372 1076.75 57.0372 1076.75 63.5188C1076.75 67.4077 1078.07 70.0002 1079.85 70.0002C1081.62 70.0002 1083.84 71.0372 1084.5 72.5927C1085.83 75.1854 1068.33 168.259 1065.89 171.63C1065.23 172.667 1060.57 154 1055.92 130.148C1044.18 70.5188 1044.18 72.5927 1049.94 70.778C1053.04 70.0002 1054.59 67.4077 1054.59 63.2594C1054.59 57.2966 1054.15 57.0372 1036.87 57.0372C1019.58 57.0372 1019.14 57.2966 1019.14 63.2594Z" fill="black"/>
<path d="M1186.41 241.111V233.333H968.173H750.257L746.67 240.139L742.755 246.944H960.995H1186.41V241.111Z" fill="#F5EC29"/>
<path d="M46.5261 241.111V233.333H264.766H482.683L486.27 240.139L490.185 246.944H271.945H46.5261V241.111Z" fill="#11A84F"/>
<path d="M448.004 240.139L445.32 246.944H594.901H744.258L746.718 240.139L749.401 233.333H599.82H450.463L448.004 240.139Z" fill="#EB242C"/>
</svg>
