<svg width="4000" height="1290" viewBox="0 0 4000 1290" fill="none" xmlns="http://www.w3.org/2000/svg">
<path d="M337.333 174V181.333H374.667H412V654.667V1128H374.667H337.333V1135.33V1142.67H542.667H748V1013.33V884H742C738.667 884 736 884.667 736 885.333C736 886.133 735.333 897.067 734.667 909.733C730.667 976.933 717.867 1033.07 699.867 1063.47C689.6 1080.8 666.8 1100.8 645.867 1110.67C623.733 1121.33 598.133 1126 554.133 1127.47L528 1128.4V889.333V650.267L544.4 651.067C584.933 652.933 607.333 667.867 625.867 704.933C637.733 728.667 643.867 765.333 644 813.6V825.333H650H656V642.667V460H650H644V471.6C643.867 506.4 639.867 540.933 633.733 560.667C626.933 582.533 611.067 608 598.133 617.867C585.067 627.733 566.933 633.333 544.4 634.267L528 635.067V408.133V181.333H540.4C558.133 181.333 588.267 183.733 600.8 186C630.4 191.467 655.467 205.467 677.067 228.533C701.467 254.8 717.333 307.6 724 384.667C724.667 393.467 725.333 406.267 725.333 412.933V425.333H732H738.667L738.4 296.267L738 167.333L537.733 166.933L337.333 166.667V174Z" fill="#CC2229"/>
<path d="M1313.6 173.6L1314 180.667L1351.07 181.067L1388 181.333V654.667V1128L1351.07 1128.27L1314 1128.67L1313.6 1135.6L1313.2 1142.67H1518.53H1724V1013.33V884H1718.13H1712.4L1711.47 900.4C1708.27 956 1702 995.467 1690.4 1030C1678.53 1065.87 1663.47 1085.73 1635.07 1103.6C1609.33 1119.6 1582.67 1125.73 1530.13 1127.47L1504 1128.4V654.933V181.333H1538.13H1572.13L1571.73 174.267L1571.33 167.333L1442.27 166.933L1313.2 166.667L1313.6 173.6Z" fill="#CC2229"/>
<path d="M2282.67 174V181.333H2319.33H2356V654.667V1128H2319.33H2282.67V1135.33V1142.67H2487.33H2692V1013.33V884H2686H2680V892.267C2680 896.933 2679.07 911.2 2678 924C2670.93 1009.73 2653.47 1062.53 2623.6 1088.27C2590.93 1116.4 2562.53 1125.33 2498.13 1127.47L2472 1128.4V654.933V181.333H2506H2540V174V166.667H2411.33H2282.67V174Z" fill="#CC2229"/>
<path d="M3252 174V181.333H3289.33H3326.67V654.667V1128H3289.33H3252V1135.33V1142.67H3457.33H3662.67V1013.33V884H3656.8H3650.93L3650.13 893.6C3649.73 898.933 3649.07 909.6 3648.67 917.333C3646.67 953.733 3638.67 1000.93 3629.87 1027.47C3620.4 1056.27 3612 1070.67 3595.87 1086C3565.2 1115.07 3534.27 1125.2 3469.07 1127.47L3442.67 1128.4V889.333V650.267L3459.07 651.067C3485.07 652.267 3504.27 659.067 3516.67 671.6C3536.13 690.933 3548.53 716.533 3553.87 748.133C3556.27 761.867 3558.53 794.4 3558.67 813.6V825.333H3564.67H3570.67V642.667V460H3564.8H3559.07L3558.13 486.267C3556.27 540.4 3549.73 568 3532.8 593.867C3514.53 622.133 3495.07 632.667 3459.07 634.267L3442.67 635.067V408.133V181.333H3455.07C3472.8 181.333 3502.93 183.733 3515.47 186C3556.4 193.6 3591.47 219.2 3609.2 254.4C3626 287.6 3640 360.533 3640 414.267V425.333H3646H3652V296V166.667H3452H3252V174ZM3638.8 1080.8C3656.13 1089.47 3655.73 1114.8 3638.13 1122.8C3630.93 1126 3624.8 1126 3617.6 1122.53C3607.73 1117.73 3602.53 1106.53 3605.33 1096.13C3609.33 1081.2 3625.07 1073.87 3638.8 1080.8Z" fill="#CC2229"/>
<path d="M3618.13 1084.4C3600 1094.8 3607.73 1121.33 3628.93 1121.33C3635.47 1121.33 3636.67 1120.8 3641.6 1116.13C3646.67 1111.47 3647.2 1110.4 3647.73 1103.2C3648.13 1096.53 3647.73 1094.67 3645.07 1090.8C3638.8 1081.6 3627.6 1078.93 3618.13 1084.4ZM3637.87 1091.07C3640.93 1093.33 3640.27 1099.87 3636.67 1101.87C3635.2 1102.67 3633.73 1103.47 3633.47 1103.6C3633.2 1103.73 3634.27 1106 3635.87 1108.67C3639.2 1114.27 3639.2 1114.67 3636.93 1114.67C3636 1114.67 3633.87 1112.27 3632.13 1109.33C3630 1105.33 3628.27 1104 3625.87 1104C3623.07 1104 3622.67 1104.53 3622.67 1109.33C3622.67 1112.27 3622.13 1114.67 3621.33 1114.67C3620.53 1114.67 3620 1109.6 3620 1102V1089.33H3627.73C3632 1089.33 3636.53 1090.13 3637.87 1091.07Z" fill="#CC2229"/>
<path d="M3622.67 1096C3622.67 1099.87 3622.93 1100 3628.53 1100C3635.73 1100 3639.33 1096.8 3635.33 1093.87C3634 1092.8 3630.53 1092 3627.73 1092C3622.93 1092 3622.67 1092.27 3622.67 1096Z" fill="#CC2229"/>
</svg>
