<svg width="814" height="246" viewBox="0 0 814 246" fill="none" xmlns="http://www.w3.org/2000/svg">
<path d="M669.2 65.8667C653.333 70.2667 639.067 82.6667 631.6 98.2667C627.6 106.8 627.333 108.133 627.333 122.667C627.333 135.867 627.733 138.933 630.4 144.667C637.733 160.533 649.467 171.2 665.067 176C677.067 179.733 693.6 179.733 705.733 176C710.667 174.533 714.667 172.933 714.667 172.667C714.667 172.4 710.667 172.533 705.733 172.933C697.6 173.467 696 173.2 689.467 169.733C676.533 162.933 669.733 149.467 668.4 127.6L667.6 116H701.333H735.067L734.4 107.6C733.067 91.3334 723.467 76.5334 709.733 69.6C699.067 64.1334 681.467 62.5334 669.2 65.8667ZM690.133 77.0667C693.867 82.6667 696 92.2667 696 104V113.333H681.333C670.533 113.333 666.667 112.933 666.667 111.6C666.667 104.8 669.733 85.6 671.467 81.6C674.533 74 677.2 71.8667 682.533 72.2667C686.133 72.5334 688 73.7334 690.133 77.0667Z" fill="#E52A12"/>
<path d="M87.6 66.8C70.2667 68.6667 51.3333 82.6667 43.4667 99.0667C22.5333 143.467 60.8 189.467 110.8 180C118.533 178.533 135.067 171.333 137.467 168.533C138.4 167.467 135.867 168.133 131.733 169.867C115.467 177.067 103.467 175.6 93.2 165.333C84.9333 157.067 81.2 147.067 80.2667 130.933L79.6 118.667H113.2H146.667V113.6C146.533 95.8667 134.8 77.3333 119.2 70.4C112 67.3333 98.1333 65.7333 87.6 66.8ZM102.533 75.2C106.533 79.4667 108.8 87.6 110 101.6L110.933 113.333H95.8667H80.9333L81.7333 102.267C82.6667 88.1333 84.8 79.6 88.8 75.3333C92.8 71.0667 98.5333 70.9333 102.533 75.2Z" fill="#E52A12"/>
<path d="M348.667 66.8C344.267 67.2 339.2 68 337.467 68.5333C334.667 69.4667 335.067 69.8667 341.467 72C354.4 76.4 358.133 83.3333 358.933 104.533L359.333 116.533L346.533 118.8C308 125.6 293.2 136 292.933 156.133C292.8 168.4 299.6 176.667 312.533 180.133C326.267 183.867 346.933 176.933 355.6 165.6L359.867 160L361.2 165.067C362 167.867 364.533 172 366.933 174.267C378.133 184.933 403.467 183.067 413.867 170.667C418 165.6 418.4 163.333 414.8 165.333C410.667 167.467 407.067 166.933 403.067 163.467L399.333 160.267L398.667 125.733C398 93.6 397.733 90.9333 395.067 85.8667C387.6 71.8667 370 64.6667 348.667 66.8ZM358.667 138C358.667 158.8 357.333 163.067 349.733 166.133C346.133 167.733 344.133 167.867 340.533 166.667C334 164.4 332 160.8 332 150.8C332 137.2 337.2 128.4 348.8 122.667C358.667 117.733 358.667 117.733 358.667 138Z" fill="#E52A12"/>
<path d="M451.067 72.4C438.4 75.3333 428 78.2667 428 78.9333C428 79.4667 428.8 80 429.733 80C430.667 80 433.2 81.8667 435.467 84.1333L439.333 88.1333V127.2C439.333 170.667 439.2 171.733 430.8 175.2C426.4 177.067 428.133 177.2 456.667 177.2C478.133 177.2 486.4 176.8 484 175.867C482.267 175.067 480.267 173.867 479.733 172.933C479.2 172 478.667 152.267 478.667 129.067V86.6667L484 84C491.6 80.1333 498.4 80.1333 501.6 83.8667C503.867 86.6667 504 90.1333 504 128.533C504 172.133 504 172.533 498 175.733C496 176.933 502.4 177.2 523.333 177.2C539.333 177.2 550.133 176.667 548.667 176C542.8 173.733 542.8 172.933 542.533 129.2L542.4 87.3333L547.6 84.4C550.667 82.5333 554.933 81.3333 558.267 81.3333C568 81.3333 568 81.2 568 128.667C568 172.133 568 172.533 562 175.733C560 176.933 566.4 177.2 587.333 177.2C603.333 177.2 614.133 176.667 612.667 176C606.933 173.733 606.8 172.8 606.4 128L606 84.6667L602.267 78.2667C597.467 70.1333 590.667 66.6667 579.333 66.6667C570.133 66.6667 561.733 70 549.2 78.8C544.8 81.8667 541.2 84.1333 540.933 83.8667C540.8 83.6 539.333 80.9333 537.867 78C531.733 66.6667 514.933 63.2 500.133 70.1333C496.133 71.8667 490 75.4667 486.4 78C482.933 80.5333 479.733 82.6667 479.333 82.6667C478.933 82.6667 478.667 79.0667 478.667 74.6667C478.667 67.8667 478.267 66.6667 476.4 66.8C475.067 66.8 463.6 69.3333 451.067 72.4Z" fill="#E52A12"/>
<path d="M153.6 70.1333C157.867 71.4667 160.933 73.6 163.6 77.0667C168.933 83.8667 198.667 127.733 199.467 130C200.4 132.267 183.2 155.733 174 164.8C166 172.533 156.8 177.333 150 177.333C147.467 177.333 145.333 177.867 145.333 178.667C145.333 179.467 155.067 180 172 180C188.933 180 198.667 179.467 198.667 178.667C198.667 177.867 197.067 177.333 195.2 177.333C190.667 177.333 184 170.667 184 166C184 164.133 185.333 160.133 186.8 157.067C190.4 150 201.6 133.2 202.267 133.733C202.533 134 207.733 141.733 214 150.8C222.533 163.333 225.333 168.4 225.333 171.733C225.333 175.467 224.8 176.133 221.333 176.8C210.667 178.933 220.4 180 251.333 180C282.533 180 292.4 178.933 280.933 176.8C278.267 176.267 274.667 174 271.733 170.933C267.067 166.133 234.133 118.267 232.533 114.133C230.933 110 257.2 76.9333 265.467 72.5333C267.6 71.4667 271.467 70.1333 274.267 69.4667C278 68.5333 273.467 68.2667 258 68.2667C239.867 68.1333 237.333 68.4 241.2 69.7333C247.067 71.7333 248.533 74.4 247.467 80.1333C246.4 85.7333 230.8 111.333 229.333 109.733C226 106 211.6 83.0667 210.667 80.1333C209.2 74.9333 211.2 70.9333 216.267 69.4667C219.333 68.6667 209.467 68.2667 184 68.2667C150.133 68.1333 147.867 68.2667 153.6 70.1333Z" fill="#E52A12"/>
<path d="M308.533 79.0667C302.133 84.8 301.067 92 305.6 98.6667C309.733 104.8 314 106.933 321.067 106.267C340.933 104.267 339.067 74.6667 319.2 74.6667C314.4 74.6667 312.4 75.4667 308.533 79.0667Z" fill="#E52A12"/>
<path d="M736.133 152.8C730.4 157.6 728.4 164.667 731.067 171.067C736.933 184.933 756.667 184.133 761.333 169.867C766.133 155.333 747.733 142.933 736.133 152.8Z" fill="#E52A12"/>
</svg>
