<svg width="1000" height="284" viewBox="0 0 1000 284" fill="none" xmlns="http://www.w3.org/2000/svg">
<g clip-path="url(#clip0_606_380)">
<rect width="1000" height="283.4" fill="#EAE8E8"/>
<path d="M217.6 241.7V248.6H229.6V283H237.5V248.7H249.8V241.7H217.6ZM291 241.7H299V283.1H291V241.7ZM340.2 241.7V248.6H352.1V283H360.1V248.7H372.4V241.7H340.2ZM421 247.7L428.1 269.2H414L421 247.7ZM415 241.7L401.3 283H409.6L412.2 275.1H430L432.6 283H440.7L426.7 241.6H415V241.7ZM520 241.7V283H506.7L494.9 260.3C494.2 259.1 492.9 256.1 490.8 251.4L489.5 248.4H489.2L489.3 251.1C489.4 253.8 489.5 256.5 489.5 259.2V283H481.7V241.6H495L505.8 262.6C506.9 264.9 508.6 268.2 510.7 272.7L512.3 276.1H512.6L512.5 273.4C512.4 270.7 512.3 268.1 512.3 265.4V241.6L520 241.7ZM561.2 241.7H569.2V283.1H561.2V241.7ZM636.9 241.7H644.8V269.2C644.8 273 644.4 275.8 643.6 277.5C642.4 280.1 640.3 281.8 637.1 282.7C635.4 283.2 632.4 283.4 628.1 283.4C624.8 283.4 622.2 283.3 620.5 283.1C618.8 282.9 617.4 282.6 616.2 282C613.6 280.9 612 279.2 611.1 276.8C610.5 275.2 610.2 272.8 610.2 269.6V241.6H618.1V269.6C618.1 271.9 618.3 273.5 618.8 274.3C619.4 275.3 620.6 276 622.4 276.3C623.4 276.5 625.1 276.5 627.4 276.5C630.6 276.5 632.8 276.3 634 275.8C635.4 275.3 636.3 273.9 636.5 271.6C636.5 271 636.6 270.2 636.6 269.2L636.9 241.7ZM734.4 241.7V283H726.6V260.5C726.6 258.4 726.7 255.3 726.9 251.3L727 248.2H726.8L725.9 251.1C724.5 255.4 723.5 258.3 723 259.7L713.9 283H706.8L697.6 259.8C697 258.4 696.1 255.5 694.7 251.2L693.8 248.3H693.6L693.8 251.3C694 255.3 694.1 258.4 694.1 260.4V283H686V241.6H698.8L706.2 260.8C706.8 262.3 707.8 265.2 709.1 269.4L710 272.2H710.3L711.2 269.4C712.5 265.3 713.4 262.5 714 260.9L721.3 241.7H734.4Z" fill="#7C7C7B"/>
<path d="M982.5 16C992.3 16 1000 23.8 1000 33.6C1000 43.6 992.4 51.3 982.4 51.3C972.6 51.3 964.7 43.6 964.7 33.6C964.7 23.8 972.6 16 982.4 16H982.5ZM982.3 19.6C974.8 19.6 969.1 25.9 969.1 33.6C969.1 41.4 974.7 47.6 982.5 47.6C990 47.7 995.6 41.4 995.6 33.6C995.6 25.9 990.1 19.6 982.4 19.6H982.3ZM979.7 42.7H975.7V25.3C977.3 25 979.5 24.7 982.3 24.7C985.5 24.7 987 25.2 988.3 26.1C989.2 26.9 990 28.3 990 29.9C990 31.9 988.5 33.4 986.4 34.1V34.3C988.1 34.8 989 36.2 989.5 38.6C990 41.3 990.3 42.4 990.8 42.9H986.5C986 42.3 985.7 40.8 985.1 38.7C984.8 36.8 983.7 35.9 981.5 35.9H979.6L979.7 42.7ZM979.8 32.9H981.7C983.9 32.9 985.7 32.2 985.7 30.3C985.7 28.7 984.5 27.6 982 27.6C981 27.6 980.2 27.7 979.8 27.8V32.9ZM176.5 16L144.9 70.8L113.2 16H52.1C23.3 16 0 39.4 0 68.2V200.2H86.2V144.5L116 200.2H173.8L203.6 144.5V200.2H289.8V16H176.5Z" fill="black"/>
<path d="M177 0L144.9 55.7L112.7 0H177Z" fill="#C90C0F"/>
<path d="M522.3 16H466.2C459 16 452.1 17.5 445.8 20.1C439.5 22.8 433.9 26.6 429.2 31.3C424.5 36 414 54.4 414 54.4L331.2 200.1H444.4L476 145.4L507.6 200.1H620.8L522.3 16Z" fill="black"/>
<path d="M443.9 216.2L476 160.5L508.2 216.2H443.9ZM839.3 0L807.2 55.7L775 0H839.3Z" fill="#C90C0F"/>
<path d="M952 200.2L886.1 102.9L952 16.1H838.8L807.2 70.9L775.6 16.1H662.3L731.4 102.9L662.3 200.2H775.5L807.1 145.5L821.6 170.6C821.6 170.6 827.8 180.8 831.9 184.9C836.6 189.6 842.3 193.5 848.5 196.1C854.8 198.8 861.6 200.2 868.9 200.2H952Z" fill="black"/>
</g>
<defs>
<clipPath id="clip0_606_380">
<rect width="1000" height="283.4" fill="white"/>
</clipPath>
</defs>
</svg>
