<?xml version="1.0" encoding="UTF-8"?>
<svg version="1.1" xmlns="http://www.w3.org/2000/svg" width="354" height="172">
<path d="M0 0 C0.80526123 0.09442383 1.61052246 0.18884766 2.44018555 0.28613281 C10.16791855 1.3294741 16.91002446 3.40452967 22.3125 9.3125 C27.75865472 17.56424957 28.53056631 25.27618561 28.578125 34.859375 C28.58382507 35.75940247 28.58952515 36.65942993 28.59539795 37.58673096 C28.60481406 39.48619422 28.6113684 41.38567358 28.61523438 43.28515625 C28.62492213 46.16435838 28.65597053 49.04284058 28.6875 51.921875 C28.69403312 53.77603747 28.69928237 55.630205 28.703125 57.484375 C28.7154718 58.33263855 28.7278186 59.1809021 28.74053955 60.05487061 C28.70588222 69.53306778 26.36150876 77.87720119 19.94921875 85.02734375 C14.64057859 90.20928605 7.7593629 92.4375 0.375 92.4375 C0.39856567 93.5044812 0.39856567 93.5044812 0.42260742 94.59301758 C0.48491915 97.81193104 0.52397867 101.03071768 0.5625 104.25 C0.58763672 105.36955078 0.61277344 106.48910156 0.63867188 107.64257812 C0.65317383 109.25229492 0.65317383 109.25229492 0.66796875 110.89453125 C0.69153442 112.3791687 0.69153442 112.3791687 0.71557617 113.89379883 C0.375 116.4375 0.375 116.4375 -1.0222168 118.2590332 C-3.55627177 120.12222945 -5.70929761 119.84778395 -8.75390625 119.73046875 C-10.625 119.4375 -10.625 119.4375 -12.5625 118.125 C-14.47150153 115.09305639 -14.75130681 112.4879869 -14.75871277 109.0035553 C-14.76297775 108.09648331 -14.76724274 107.18941132 -14.77163696 106.25485229 C-14.77118378 105.26204254 -14.77073059 104.26923279 -14.77026367 103.24633789 C-14.77362228 102.19893936 -14.7769809 101.15154083 -14.78044128 100.07240295 C-14.78995926 96.60164207 -14.79189477 93.13092938 -14.79296875 89.66015625 C-14.79618053 87.25263957 -14.79954454 84.84512308 -14.80305481 82.43760681 C-14.80904805 77.3878433 -14.81089449 72.3380969 -14.81030273 67.28833008 C-14.81020105 60.81048934 -14.82385869 54.33275806 -14.84107494 47.85494328 C-14.85218037 42.88190708 -14.8542224 37.90889747 -14.85369301 32.93585014 C-14.85487512 30.54719096 -14.85930976 28.15853113 -14.86702538 25.76988411 C-14.87679659 22.43252971 -14.87395858 19.09541469 -14.86791992 15.75805664 C-14.87353943 14.76727112 -14.87915894 13.7764856 -14.88494873 12.75567627 C-14.88075424 11.84578445 -14.87655975 10.93589264 -14.87223816 9.99842834 C-14.87278293 9.20958283 -14.87332769 8.42073732 -14.87388897 7.6079874 C-14.50861251 4.42251901 -13.54290892 2.18132275 -11.0390625 0.15234375 C-7.32408957 -0.94772105 -3.78543882 -0.4489553 0 0 Z " fill="#5E92CC" transform="translate(128.625,42.5625)"/>
<path d="M0 0 C6.45695696 3.7942943 9.66182085 8.67809838 12.1875 15.75 C13.29454649 20.89900897 13.36461488 25.93077508 13.390625 31.171875 C13.39632507 32.07190247 13.40202515 32.97192993 13.40789795 33.89923096 C13.41731406 35.79869422 13.4238684 37.69817358 13.42773438 39.59765625 C13.43742213 42.47685838 13.46847053 45.35534058 13.5 48.234375 C13.50653312 50.08853747 13.51178237 51.942705 13.515625 53.796875 C13.5279718 54.64513855 13.5403186 55.4934021 13.55303955 56.36737061 C13.51838222 65.84556778 11.17400876 74.18970119 4.76171875 81.33984375 C-0.54692141 86.52178605 -7.4281371 88.75 -14.8125 88.75 C-14.78893433 89.8169812 -14.78893433 89.8169812 -14.76489258 90.90551758 C-14.70258085 94.12443104 -14.66352133 97.34321768 -14.625 100.5625 C-14.59986328 101.68205078 -14.57472656 102.80160156 -14.54882812 103.95507812 C-14.53432617 105.56479492 -14.53432617 105.56479492 -14.51953125 107.20703125 C-14.49596558 108.6916687 -14.49596558 108.6916687 -14.47192383 110.20629883 C-14.8125 112.75 -14.8125 112.75 -16.2097168 114.5715332 C-18.74405827 116.4349401 -20.89643954 116.16197859 -23.94140625 116.0390625 C-25.8125 115.75 -25.8125 115.75 -27.75 114.5 C-29.72856858 111.24118116 -29.93862152 107.99008316 -29.95294189 104.24049377 C-29.96150711 102.89261276 -29.96150711 102.89261276 -29.97024536 101.51750183 C-29.97192215 100.05006279 -29.97192215 100.05006279 -29.97363281 98.55297852 C-29.98108017 96.99870148 -29.98108017 96.99870148 -29.98867798 95.4130249 C-30.00328449 91.98497861 -30.01009829 88.55697855 -30.015625 85.12890625 C-30.02137666 82.74763487 -30.02713439 80.36636351 -30.03289795 77.98509216 C-30.04340292 72.99258203 -30.04924923 68.00008799 -30.05273438 63.00756836 C-30.05822515 56.60715636 -30.08226793 50.20695645 -30.11070633 43.80661106 C-30.12931711 38.88843664 -30.13453743 33.97031353 -30.13607025 29.05210686 C-30.13909964 26.69217707 -30.14713776 24.33224825 -30.16025543 21.97235298 C-30.17728672 18.67354219 -30.17544287 15.37525279 -30.16894531 12.07641602 C-30.1781601 11.10014755 -30.18737488 10.12387909 -30.1968689 9.11802673 C-30.14415304 0.58558953 -30.14415304 0.58558953 -26.8125 -3.25 C-19.16588431 -5.7988719 -7.2063334 -3.38479296 0 0 Z " fill="#82C2DD" transform="translate(37.8125,46.25)"/>
<path d="M0 0 C6.71332398 3.95647788 10.15777718 9.2893972 12.1875 16.75 C13.1853068 21.68597897 13.36346822 26.43257019 13.390625 31.4453125 C13.39632507 32.27400848 13.40202515 33.10270447 13.40789795 33.95651245 C13.4173113 35.70634704 13.42386729 37.45619906 13.42773438 39.20605469 C13.437394 41.84602932 13.46843299 44.48520915 13.5 47.125 C13.59385518 61.87193031 12.45285962 73.01233412 2 84.0625 C-2.99046898 87.05678139 -8.98297532 88.75 -14.8125 88.75 C-14.78893433 89.76368652 -14.78893433 89.76368652 -14.76489258 90.79785156 C-14.70246133 93.86514897 -14.66348353 96.93231259 -14.625 100 C-14.58729492 101.59521484 -14.58729492 101.59521484 -14.54882812 103.22265625 C-14.53432617 104.75986328 -14.53432617 104.75986328 -14.51953125 106.328125 C-14.49596558 107.74206543 -14.49596558 107.74206543 -14.47192383 109.18457031 C-14.87911499 112.25178517 -15.60957249 113.59220807 -17.8125 115.75 C-24.51274722 116.60082504 -24.51274722 116.60082504 -27.90834045 114.37805176 C-30.90304055 110.24487559 -30.36153213 106.14927757 -30.31420898 101.16992188 C-30.31961197 100.09311661 -30.32501495 99.01631134 -30.33058167 97.90687561 C-30.34309922 94.34388835 -30.32655695 90.78170433 -30.30859375 87.21875 C-30.30874867 84.74540159 -30.31023642 82.27205293 -30.31300354 79.79870605 C-30.3143889 74.61357907 -30.30180613 69.42872824 -30.27905273 64.24365234 C-30.25066787 57.59192941 -30.25340364 50.94087288 -30.26614285 44.28908539 C-30.27309255 39.18133615 -30.26531876 34.0736933 -30.25288582 28.96595764 C-30.24836446 26.51311145 -30.24804047 24.06025386 -30.25195122 21.60740662 C-30.25485641 18.18139167 -30.23838867 14.75601278 -30.21655273 11.33007812 C-30.22105438 10.31281143 -30.22555603 9.29554474 -30.23019409 8.24745178 C-30.22028946 7.31376266 -30.21038483 6.38007355 -30.20018005 5.41809082 C-30.19775016 4.6084211 -30.19532026 3.79875137 -30.19281673 2.9645462 C-29.71308976 0.17114416 -28.74145353 -1.19640466 -26.8125 -3.25 C-19.16588431 -5.7988719 -7.2063334 -3.38479296 0 0 Z " fill="#5E92CC" transform="translate(251.8125,46.25)"/>
<path d="M0 0 C3.42480752 3.42480752 3.14734266 7.19362693 3.29711914 11.87573242 C3.3570681 13.65490303 3.3570681 13.65490303 3.41822815 15.47001648 C3.45681442 16.75221573 3.4954007 18.03441498 3.53515625 19.35546875 C3.57826597 20.69909113 3.62168258 22.04270369 3.66539001 23.38630676 C3.75630045 26.20985211 3.84423215 29.03346952 3.92993164 31.85717773 C4.0383511 35.42537378 4.15293707 38.9933376 4.26944923 42.56127739 C4.50850438 49.89915699 4.72402135 57.23720441 4.91192627 64.57659912 C4.96682586 66.71053047 5.02497174 68.84438383 5.08807373 70.97808838 C5.15673719 73.39818394 5.20614088 75.81757039 5.24609375 78.23828125 C5.27243896 79.48262939 5.29878418 80.72697754 5.32592773 82.0090332 C4.96439041 85.32678136 4.36874712 86.68255897 2 89 C-1.14912216 89.93803639 -3.15004793 90.25268845 -6.3125 89.3125 C-8.41718907 87.67551961 -8.47631739 86.54582338 -9 84 C-9.61746094 84.433125 -10.23492187 84.86625 -10.87109375 85.3125 C-15.8078735 88.55860175 -19.81008289 91.0037277 -25.83984375 90.50390625 C-32.02832559 89.06030018 -35.82718441 85.76718991 -39.25 80.5 C-48.33079547 63.47971123 -48.57538324 43.55311236 -43.125 25.21484375 C-39.90164355 16.00365502 -34.92190534 7.38063049 -26.0625 2.5 C-22.46371872 0.93746432 -18.98896367 0.42580909 -15.09375 0.15234375 C-12.81333897 0.03007222 -12.81333897 0.03007222 -9.875 -0.625 C-6.36595539 -1.08270147 -3.4538395 -0.7306199 0 0 Z " fill="#83C2DF" transform="translate(102,46)"/>
<path d="M0 0 C5.21823844 5.21823844 3.33026367 18.50483728 3.53515625 25.5625 C3.57829281 26.96298049 3.62170928 28.36345239 3.66539001 29.76391602 C3.75577433 32.68532208 3.84380476 35.60678568 3.92993164 38.52832031 C4.03969599 42.25013556 4.15381127 45.97180063 4.26950932 49.69343567 C4.35906507 52.58122201 4.44708351 55.4690535 4.53457451 58.35690308 C4.57615307 59.72827007 4.61801271 61.09962857 4.66017342 62.47097778 C4.78771593 66.64703368 4.90013125 70.82319477 5 75 C5.02625458 75.92240479 5.05250916 76.84480957 5.07955933 77.79516602 C5.14536495 81.48325326 5.14170151 83.72226504 3.4375 87.0625 C1 89 1 89 -2.4375 89.625 C-6.79206173 88.8610418 -8.23215917 87.35495858 -11 84 C-12.03125 84.804375 -13.0625 85.60875 -14.125 86.4375 C-18.1540768 89.26591192 -21.12512905 90.45892435 -26.12890625 89.66015625 C-32.6641342 87.96829521 -36.37077662 84.60221764 -40 79 C-48.67102422 63.10695561 -48.44070265 44.30668709 -44.375 27.0625 C-41.01805716 15.74342198 -35.0978789 7.03604879 -24.8125 1.1875 C-20.39044406 -0.18986169 -16.28096137 -0.54340054 -11.671875 -0.7890625 C-3.53997683 -1.43105446 -3.53997683 -1.43105446 0 0 Z " fill="#5E92CD" transform="translate(210,44)"/>
<path d="M0 0 C5.3505345 5.3505345 3.31947655 19.0885641 3.53515625 26.22265625 C3.57831218 27.57686668 3.6217285 28.93106884 3.66539001 30.28526306 C3.75565581 33.10653689 3.84369499 35.92786776 3.92993164 38.74926758 C4.03980009 42.34213902 4.15390122 45.93485983 4.26950932 49.5275507 C4.35907896 52.31839785 4.44708895 55.10929241 4.53457451 57.90020561 C4.59612823 59.86146958 4.65841399 61.82271054 4.72071838 63.78395081 C5.34964512 84.4270452 5.34964512 84.4270452 2 88 C-1.60619821 89.25432981 -3.25963619 89.336529 -6.75 87.75 C-9 86 -9 86 -11 83 C-11.94875 83.804375 -12.8975 84.60875 -13.875 85.4375 C-17.83172722 88.79211656 -20.46143233 89.34756196 -25.6171875 89.28125 C-30.45854726 88.70981081 -33.69643977 86.30356023 -37.125 82.875 C-41.35442637 76.38987957 -44.76985921 69.68837995 -46 62 C-46.1340625 61.18789062 -46.268125 60.37578125 -46.40625 59.5390625 C-48.39031577 43.44107435 -46.36324559 24.44962203 -36.75 11 C-31.9818184 5.39529532 -25.68138746 0.46813875 -18.1875 -0.28125 C-16.0625 -0.42708333 -13.9375 -0.57291667 -11.8125 -0.71875 C-3.76793249 -1.52320675 -3.76793249 -1.52320675 0 0 Z " fill="#5E92CD" transform="translate(317,44)"/>
<path d="M0 0 C2.86801846 0.08864784 3.78417611 0.16414857 6.125 1.9375 C7.42319789 5.31281451 7.10539232 7.99342674 6.0625 11.375 C4.33275456 14.5232155 2.26364617 17.36866486 0.125 20.25 C-0.42607422 21.02085938 -0.97714844 21.79171875 -1.54492188 22.5859375 C-5.62615381 28.21932691 -5.62615381 28.21932691 -7.9375 29.375 C-11.5192622 29.76432198 -13.30031721 29.81096718 -16.3125 27.75 C-18.50076819 24.55176188 -18.46920234 23.22984194 -17.9375 19.375 C-16.25886848 16.24816661 -14.18815763 13.46083158 -12.0625 10.625 C-11.50691406 9.85800781 -10.95132812 9.09101563 -10.37890625 8.30078125 C-4.64756203 0.44262496 -4.64756203 0.44262496 0 0 Z " fill="#6092CB" transform="translate(312.9375,10.625)"/>
<path d="M0 0 C2.24320219 0.28687488 4.31810999 0.25487771 6.57421875 0.15625 C7.77046875 0.1975 8.96671875 0.23875 10.19921875 0.28125 C12.58235513 3.85595457 12.84759793 5.06678535 12.19921875 9.28125 C10.48235648 11.90394144 8.55970017 14.21429994 6.19921875 16.28125 C5.53921875 16.28125 4.87921875 16.28125 4.19921875 16.28125 C4.19921875 16.94125 4.19921875 17.60125 4.19921875 18.28125 C2.42578125 18.94921875 2.42578125 18.94921875 0.19921875 19.28125 C-1.65234375 18.20703125 -1.65234375 18.20703125 -3.42578125 16.59375 C-4.01617187 16.07425781 -4.6065625 15.55476563 -5.21484375 15.01953125 C-8.00264238 11.96393916 -9.08975095 9.28189562 -9.11328125 5.15625 C-9.01015625 3.8775 -8.90703125 2.59875 -8.80078125 1.28125 C-5.29638765 -1.0550124 -4.00411273 -0.65131593 0 0 Z " fill="#82BFE2" transform="translate(187.80078125,82.71875)"/>
<path d="M0 0 C3.35108878 0.05424424 4.00762937 0.23022608 6.75 2.4375 C8.64433606 6.30853457 8.47386435 8.28890147 7.1875 12.375 C4.3503797 14.96893856 2.90207298 15.40358292 -0.9375 15.25 C-3.90405626 14.34713505 -5.09022957 13.91308274 -6.8125 11.375 C-7.6875 9 -7.6875 9 -7.8125 6.375 C-4.86422414 0.47844828 -4.86422414 0.47844828 0 0 Z M-1.8125 2.375 C2.1875 3.375 2.1875 3.375 2.1875 3.375 Z M-3.8125 4.375 C-4.49208603 6.77219432 -4.49208603 6.77219432 -4.8125 9.375 C-4.1525 10.035 -3.4925 10.695 -2.8125 11.375 C-2.8125 9.065 -2.8125 6.755 -2.8125 4.375 C-3.1425 4.375 -3.4725 4.375 -3.8125 4.375 Z M4.1875 5.375 C3.8575 6.695 3.5275 8.015 3.1875 9.375 C4.1775 9.87 4.1775 9.87 5.1875 10.375 C5.1875 8.725 5.1875 7.075 5.1875 5.375 C4.8575 5.375 4.5275 5.375 4.1875 5.375 Z M0.1875 9.375 C0.1875 10.035 0.1875 10.695 0.1875 11.375 C-0.8025 11.87 -0.8025 11.87 -1.8125 12.375 C-0.1625 12.375 1.4875 12.375 3.1875 12.375 C2.5275 12.045 1.8675 11.715 1.1875 11.375 C0.8575 10.715 0.5275 10.055 0.1875 9.375 Z " fill="#6294C9" transform="translate(337.8125,42.625)"/>
<path d="M0 0 C0.66 0.33 1.32 0.66 2 1 C3.94677886 9.20485932 3.11537389 18.23501128 3.0625 26.625 C3.05747197 28.02473797 3.05291138 29.4244777 3.04882812 30.82421875 C3.03713167 34.21619169 3.02074086 37.60807233 3 41 C2.67 41 2.34 41 2 41 C2 33.74 2 26.48 2 19 C1.01 19 0.02 19 -1 19 C-3.37288136 5.05932203 -3.37288136 5.05932203 0 0 Z " fill="#6291B1" transform="translate(317,45)"/>
<path d="M0 0 C0 0.99 0 1.98 0 3 C-3.94647618 3.98844951 -7.27392964 3.96191905 -11.3125 3.5625 C-12.38113281 3.46066406 -13.44976562 3.35882813 -14.55078125 3.25390625 C-15.35902344 3.17011719 -16.16726563 3.08632813 -17 3 C-17 2.67 -17 2.34 -17 2 C-16.16855469 1.93941406 -15.33710938 1.87882812 -14.48046875 1.81640625 C-12.85044922 1.69072266 -12.85044922 1.69072266 -11.1875 1.5625 C-10.10855469 1.48128906 -9.02960938 1.40007813 -7.91796875 1.31640625 C-5.15209182 1.01649188 -2.75597229 0 0 0 Z " fill="#6295BD" transform="translate(313,42)"/>
<path d="M0 0 C0.33 0.66 0.66 1.32 1 2 C1.99 2.33 2.98 2.66 4 3 C1.64653604 4.17673198 0.1193967 4.16623866 -2.5 4.1875 C-3.2940625 4.20167969 -4.088125 4.21585938 -4.90625 4.23046875 C-7 4 -7 4 -9 2 C-6.94921875 1.77213542 -4.8984375 1.54427083 -2.84765625 1.31640625 C-0.98859771 1.18113386 -0.98859771 1.18113386 0 0 Z " fill="#80B7C1" transform="translate(81,132)"/>
<path d="M0 0 C0.66 0.33 1.32 0.66 2 1 C-0.64 3.97 -3.28 6.94 -6 10 C-6 6.41087588 -5.33563446 5.89142971 -3 3.3125 C-2.443125 2.68988281 -1.88625 2.06726562 -1.3125 1.42578125 C-0.879375 0.95527344 -0.44625 0.48476563 0 0 Z " fill="#6693C5" transform="translate(179,49)"/>
<path d="M0 0 C0 0.99 0 1.98 0 3 C-0.99 3.33 -1.98 3.66 -3 4 C-3.99 5.485 -3.99 5.485 -5 7 C-5.66 7 -6.32 7 -7 7 C-3.86206897 0 -3.86206897 0 0 0 Z " fill="#6397B8" transform="translate(288,49)"/>
</svg>
