<svg width="679" height="180" viewBox="0 0 679 180" fill="none" xmlns="http://www.w3.org/2000/svg">
<path d="M363.333 37.7334C337.467 46.4 321.067 71.0667 322.933 98.6667C324.133 114.4 331.467 126.133 344.667 133.067C350.667 136.4 352.667 136.667 366 136.667C379.067 136.667 381.467 136.267 388.267 133.067C392.533 131.067 398.933 126.667 402.667 123.2L409.333 116.933L401.2 111.067L393.067 105.067L388.133 109.867C379.733 118.133 369.867 120.533 360.8 116.8C351.067 112.8 346.4 99.8667 349.333 85.0667C350.133 80.5334 352 74.5334 353.333 72C356.667 65.3334 365.467 57.8667 371.6 56.1334C382.267 53.0667 388.8 55.0667 395.733 63.3334L399.6 68.1334L408 63.0667C412.667 60.2667 416.667 57.3334 416.933 56.5334C417.867 53.7334 409.6 44.5334 402.533 40.6667C396.133 37.2 393.867 36.6667 382 36.4C373.6 36.1334 366.667 36.6667 363.333 37.7334Z" fill="#DFFA55"/>
<path d="M89.3333 38C89.3333 39.2 74.6666 131.2 74.1333 133.733C73.6 135.867 74.6666 136 86.4 135.733L99.3333 135.333L100.267 128.667C100.8 124.933 101.867 118 102.667 113.2L104.133 104.267L121.733 103.733C143.067 103.067 150.267 100.533 159.067 90.6667C165.6 83.3334 168 76.9334 168 66.1334C168 53.4667 159.733 41.8667 148.4 38.8C143.333 37.3333 89.3333 36.6667 89.3333 38ZM139.467 60.4C146.267 68.4 141.733 80.9334 130.933 84C128.267 84.6667 122 85.3334 117.067 85.3334C106.667 85.3334 106.933 86 109.467 70.8C112.133 54 110.4 55.7333 124.133 56.2667C135.467 56.6667 136.4 56.9333 139.467 60.4Z" fill="#DFFA55"/>
<path d="M168.933 85.6C164.667 112.267 161.333 134.4 161.333 134.933C161.333 135.6 174.8 136 191.2 136H221.067L225.867 126.667L230.8 117.333H210H189.2L190 112.933C193.2 93.8667 201.333 42 201.333 40C201.333 37.6 200.4 37.3333 188.933 37.3333H176.667L168.933 85.6Z" fill="#DFFA55"/>
<path d="M249.733 86.6667L224.267 136H237.2H250.133L255.067 126L260 116H278.533H296.933L298.533 126L300.133 136H312.8C322.133 136 325.333 135.6 325.333 134.267C325.333 133.333 321.467 113.333 316.8 90C312.133 66.5333 307.867 45.0667 307.467 42.2667L306.533 37.3333H290.933H275.333L249.733 86.6667ZM290.8 78.4C292.4 88.1333 293.467 96.4 293.067 96.6667C292.667 97.0667 287.2 97.3333 281.067 97.0667L269.733 96.6667L278.4 78.2667C283.2 68.2667 287.333 60.1333 287.467 60.4C287.733 60.6667 289.2 68.6667 290.8 78.4Z" fill="#DFFA55"/>
<path d="M440.933 62.2667C433.867 76.1333 422.4 98.2667 415.467 111.6L402.8 136H415.733H428.8L433.733 126L438.667 116H457.2H475.6L477.2 126L478.8 136H491.467C500.533 136 504 135.6 504 134.267C504 133.467 499.733 111.2 494.533 84.9333L484.933 37.3333H469.333H453.733L440.933 62.2667ZM469.2 77.7333C470.8 87.0667 472 95.3333 472 96C472 96.8 466.933 97.3333 460 97.3333C453.467 97.3333 448 97.0667 448 96.6667C448 95.7333 465.867 60.1333 466.133 60.4C466.4 60.5333 467.733 68.4 469.2 77.7333Z" fill="#DFFA55"/>
<path d="M522.667 38.1333C522.667 39.4667 508.133 130.933 507.467 133.733C506.933 135.867 508 136 519.733 135.733L532.667 135.333L535.6 117.333C537.2 107.467 538.533 99.2 538.533 98.9333C538.667 98.8 542.267 98.6667 546.667 98.6667H554.533L557.333 108.267C558.933 113.6 561.333 122 562.8 127.067L565.467 136H578.8C592.133 136 592.267 136 591.467 132.933C591.067 131.333 588 121.733 584.8 111.6L578.933 93.3333L583.067 91.2C605.333 80 607.067 49.3333 586 39.8667C581.333 37.7333 576.933 37.3333 551.733 37.3333C535.733 37.3333 522.667 37.7333 522.667 38.1333ZM569.733 57.4667C573.733 59.6 574.667 61.2 574.667 66.4C574.667 76.5333 569.067 80 552.667 80C546.4 80 541.333 79.8667 541.333 79.6C541.333 79.4667 542.267 74.2667 543.333 68C544.4 61.7333 545.333 56.5333 545.333 56.2667C545.333 55.2 567.333 56.2667 569.733 57.4667Z" fill="#DFFA55"/>
</svg>
