<svg width="1821" height="398" viewBox="0 0 1821 398" fill="none" xmlns="http://www.w3.org/2000/svg">
<path d="M54.28 303.998H112.014L166.294 92.3536H136.687L90.1376 276.511H75.9919L30.7586 92.3536H0L54.28 303.998ZM222.218 92.3536H193.434V303.998H222.218V92.3536ZM222.218 7.69613H193.434V44.5277H222.218V7.69613ZM387.196 0V93.6364C370.583 89.9715 354.794 88.1391 339.824 88.1391C311.204 88.1391 290.48 97.3011 278.144 115.442C265.642 133.583 259.557 163.268 259.557 204.313C259.557 245.36 266.465 273.58 280.283 288.789C287.025 296.117 294.098 301.248 301.83 303.998C309.56 306.746 318.443 308.211 328.805 308.211C348.05 308.211 367.458 301.983 387.196 289.522V303.998H415.652V0H387.196ZM302.652 265.884C293.605 254.523 289.164 232.533 289.164 199.915C289.164 171.147 292.947 149.891 300.678 136.148C308.408 122.405 321.896 115.625 341.47 115.625C355.616 115.625 370.748 117.275 387.196 120.756V264.234L379.466 268.082C374.367 270.647 367.13 273.213 358.083 275.961C349.036 278.71 340.812 279.993 333.411 279.993C326.009 279.993 320.087 279.076 315.481 277.06C310.875 275.045 306.434 271.38 302.487 266.067L302.652 265.884ZM582.768 104.631C572.9 93.6364 557.11 88.1391 535.232 88.1391C513.356 88.1391 488.52 91.2542 460.228 97.4843L461.379 121.672L473.222 120.39C495.264 117.641 516.482 116.175 537.042 116.175C546.746 116.175 554.477 119.29 560.07 125.52C565.662 131.75 568.458 142.012 568.458 156.488V174.629L508.093 181.043C487.862 183.241 472.893 189.289 463.517 199C453.977 208.711 449.207 223.92 449.207 244.444C449.207 264.967 453.813 280.908 463.024 291.904C472.235 302.898 485.724 308.396 503.323 308.396C526.351 308.396 549.542 302.715 572.571 291.537C582.768 302.898 598.066 308.396 618.297 308.396L619.449 283.474C605.304 281.458 597.902 275.228 597.079 264.784V156.305C597.079 132.85 592.144 115.625 582.275 104.631H582.768ZM486.381 215.492C491.48 209.261 499.869 205.596 511.382 204.498L568.294 198.633V268.449L559.413 271.747C542.469 278.343 525.363 281.458 507.929 281.458C488.355 281.458 478.651 268.449 478.651 242.612C478.651 230.701 481.282 221.722 486.381 215.492ZM847.095 123.138L847.917 96.0184L837.227 93.8195C813.705 89.7883 793.967 87.9558 778.341 87.9558C758.603 87.9558 742.154 92.9033 728.996 102.798C715.837 112.693 709.257 127.902 709.257 148.425C709.257 168.948 714.027 183.058 723.403 190.754C732.943 198.45 748.898 204.131 771.432 208.161C793.967 212.194 808.606 216.224 815.35 220.622C822.095 225.02 825.384 233.266 825.384 245.542C825.384 257.821 821.435 266.617 813.705 271.747C805.975 277.06 794.46 279.626 779.657 279.626C764.854 279.626 742.812 277.243 713.534 272.48L712.055 299.965L723.567 301.981C745.115 306.013 763.866 307.846 779.657 307.846C804.001 307.846 822.588 302.715 835.252 292.637C847.917 282.558 854.333 266.617 854.333 244.81C854.333 223.005 849.563 208.346 840.187 200.283C830.647 192.404 814.529 186.174 791.665 181.776C768.8 177.378 754.162 173.163 747.746 169.132C741.332 165.1 738.208 157.954 738.208 148.242C738.208 126.803 752.187 115.992 780.15 115.992C796.599 115.992 818.968 118.191 847.424 122.772L847.095 123.138ZM908.12 91.804H879.335V303.448H908.12V92.3536V91.804ZM908.12 7.14642H879.335V44.5277H908.12V7.69613V7.14642ZM973.091 131.567L979.671 127.719C984.276 125.154 990.855 122.588 999.408 119.84C1007.96 117.091 1016.35 115.808 1024.58 115.808C1041.52 115.808 1052.37 121.306 1057.47 132.117C1062.41 142.928 1065.04 163.634 1065.04 194.235V303.448H1093.82V193.319C1093.82 161.435 1092.18 140.912 1088.72 131.567L1095.96 127.719C1100.9 125.154 1107.8 122.588 1116.69 119.84C1125.57 117.091 1134.45 115.808 1142.84 115.808C1159.45 115.808 1170.31 121.306 1175.57 132.117C1180.67 142.928 1183.3 163.085 1183.3 192.404V303.265H1212.09V191.487C1212.09 152.274 1207.65 125.154 1198.76 109.945C1189.88 94.919 1172.61 87.2228 1146.95 87.2228C1136.75 87.2228 1124.91 89.4217 1111.42 93.8195C1097.93 98.2174 1087.08 103.165 1078.53 108.845C1068.99 94.3692 1052.37 87.2228 1028.52 87.2228C1010.27 87.2228 991.678 93.6364 972.433 106.28V91.4374H943.977V303.081H972.762V132.117L973.091 131.567ZM1275.41 397.45V303.081C1288.41 306.196 1302.88 307.846 1318.51 307.846C1348.44 307.846 1369.99 299.233 1382.99 282.191C1395.98 265.149 1402.4 236.931 1402.4 197.717C1402.4 158.504 1396.97 130.285 1385.95 113.243C1374.93 96.2017 1357.16 87.5893 1332.82 87.5893C1313.9 87.5893 1294.66 94.0027 1275.09 107.013V91.804H1246.63V398H1275.41V397.45ZM1361.77 134.499C1369.33 146.96 1373.12 167.849 1373.12 197.167C1373.12 226.486 1369.01 247.742 1360.62 260.752C1352.23 273.762 1337.75 280.176 1317.03 280.176C1307.49 280.176 1293.67 278.71 1275.58 275.595V133.4L1282.82 129.185C1287.91 126.436 1294.99 123.505 1303.71 120.756C1312.59 118.007 1320.81 116.541 1328.54 116.541C1343.18 116.541 1354.2 122.772 1361.77 135.232V134.499ZM1461.12 0.183241H1432.33V303.998H1461.12V0V0.183241ZM1571.98 280.543C1552.9 280.543 1539.41 274.862 1531.84 263.501C1524.11 252.323 1520.33 234.916 1520.33 211.461H1647.31L1648.79 187.273C1648.79 153.19 1642.38 128.086 1629.55 112.144C1616.73 96.2017 1597.31 88.3224 1571.49 88.3224C1517.86 88.3224 1491.05 125.337 1491.05 199.733C1491.05 236.931 1496.81 264.417 1508.32 282.008C1519.84 299.6 1539.41 308.396 1567.21 308.396C1587.93 308.396 1612.94 306.196 1642.22 301.615L1641.4 276.695L1630.21 277.978C1610.47 279.626 1591.06 280.543 1571.98 280.543ZM1519.84 186.174C1520.17 161.436 1524.61 143.295 1533.16 131.934C1541.71 120.573 1554.54 115.076 1571.65 115.076C1588.76 115.076 1601.09 120.39 1608.49 131.201C1616.07 141.829 1619.85 160.336 1619.85 186.174H1519.84ZM1802.1 123.505L1802.92 96.3849L1792.22 94.186C1768.71 90.1548 1748.97 88.3224 1733.33 88.3224C1713.59 88.3224 1697.16 93.2699 1683.99 103.165C1670.84 113.06 1664.25 128.269 1664.25 148.792C1664.25 169.315 1669.02 183.424 1678.56 191.121C1688.1 198.817 1704.05 204.498 1726.6 208.528C1749.13 212.559 1763.78 216.592 1770.51 220.99C1777.09 225.387 1780.55 233.633 1780.55 245.91C1780.55 258.186 1776.6 266.982 1768.87 272.113C1760.97 277.428 1749.63 279.993 1734.82 279.993C1720.02 279.993 1697.98 277.61 1668.7 272.847L1667.21 300.333L1678.74 302.348C1700.28 306.379 1719.02 308.211 1734.82 308.211C1759.17 308.211 1777.75 303.081 1790.41 293.002C1803.08 282.924 1809.49 266.982 1809.49 245.177C1809.49 223.37 1804.72 208.711 1795.34 200.65C1785.8 192.769 1769.69 186.539 1746.82 182.141C1723.96 177.744 1709.32 173.529 1703.07 169.498C1696.66 165.467 1693.37 158.32 1693.37 148.609C1693.37 127.17 1707.36 116.358 1735.32 116.358C1751.75 116.358 1774.14 118.557 1802.58 123.138" fill="#4AC1BD"/>
</svg>
