<svg width="3467" height="630" viewBox="0 0 3467 630" fill="none" xmlns="http://www.w3.org/2000/svg">
<g clip-path="url(#clip0_606_339)">
<rect width="3467" height="630" fill="#EAE8E8"/>
<mask id="mask0_606_339" style="mask-type:luminance" maskUnits="userSpaceOnUse" x="0" y="0" width="3467" height="630">
<path d="M3467 0H0V630H3467V0Z" fill="white"/>
</mask>
<g mask="url(#mask0_606_339)">
<path d="M419 11.0625C423.254 15.1836 424.792 19.0686 425 25C423.09 29.6795 420.589 32.7911 417 36.3125C416.273 37.0262 416.273 37.0262 415.531 37.7544C411.542 41.6099 407.3 45.0909 402.961 48.5469C398.861 51.9436 394.993 55.5673 391.122 59.2202C388.152 62.0187 385.149 64.7561 382.062 67.4258C366.063 81.353 348.508 98.6431 341 119C345.167 119 347.478 116.763 350.75 114.437C367.858 102.712 385.151 97.0813 406 98C405.917 96.7212 405.835 95.4425 405.75 94.125C405.798 86.4583 408.418 80.2952 413.625 74.6875C421.118 67.922 427.981 65.2739 438.091 65.4014C444.324 65.7245 448.9 67.5226 454 71C454.928 71.5981 455.856 72.1962 456.812 72.8125C462.851 78.8513 465.123 84.8216 465.312 93.25C465.225 100.376 464.031 104.75 459.164 109.969C452.62 116.087 447.018 117.467 438.152 117.324C434.004 116.898 430.534 115.661 426.691 114.09C422.556 112.415 418.285 111.227 414 110C423.654 134.358 423.654 134.358 442.438 151.438C450.265 154.51 456.36 152.971 464 150C463 153 463 153 460.188 154.688C453.243 157.349 445.592 157.103 438.812 154.125C424.888 146.13 414.546 127.693 409 113C408.623 111.343 408.273 109.678 408 108C387.796 107.171 370.554 112.584 354 124C354.664 124.125 355.328 124.251 356.013 124.38C390.536 130.981 390.536 130.981 398.461 140.812C403.628 148.459 404.234 156.137 404.656 165.145C404.806 168.198 404.806 168.198 407 171C407.597 170.783 408.194 170.567 408.809 170.344C419.884 166.789 432.716 165.98 443.574 170.676C453.881 176.302 460.092 183.869 464.336 194.703C465 197 465 197 465 201C465.675 200.651 466.351 200.301 467.047 199.941C467.939 199.486 468.831 199.031 469.75 198.562C470.632 198.11 471.513 197.658 472.422 197.191C480.964 193.244 493.224 193.633 502.062 196.625C513.32 201.486 520.132 209.31 525.02 220.352C526.642 224.734 527.125 228.655 527.062 233.312C527.053 234.196 527.044 235.079 527.035 235.988C527.024 236.652 527.012 237.316 527 238C527.883 237.954 528.766 237.907 529.676 237.859C541.582 237.501 551.901 239.933 561 248C569.736 257.991 572.984 266.782 573 280C572.199 290.097 567.62 300.212 560 307C549.23 314.793 540.161 316.505 527 316C527.093 317.671 527.093 317.671 527.188 319.375C527.135 329.31 522.798 338.697 516.184 346.008C508.839 352.863 501.017 356.515 491 357C491.238 357.756 491.238 357.756 491.48 358.527C493.916 370.12 491.885 380.923 486.25 391.188C478.667 400.667 478.667 400.667 474 403C474.205 403.603 474.41 404.207 474.621 404.828C474.891 405.627 475.16 406.427 475.438 407.25C475.704 408.039 475.971 408.828 476.246 409.641C476.619 410.809 476.619 410.809 477 412C477.286 412.888 477.286 412.888 477.578 413.793C479.736 425.081 478.508 436.587 472.527 446.422C466.711 454.616 458.626 460.226 449 463C447.334 463.041 445.666 463.049 444 463C444.052 463.909 444.052 463.909 444.105 464.836C444.482 476.501 440.787 486.444 433.031 495.23C424.161 503.795 414.672 506.695 402.593 506.531C394.007 506.154 387.263 503.486 380 499C379.792 499.617 379.585 500.235 379.371 500.871C375.227 512.262 368.832 519.496 358.047 524.996C352.473 527.529 347.451 528.139 341.375 528.125C340.248 528.128 339.122 528.13 337.961 528.133C335 528 335 528 332 527C332.349 527.748 332.699 528.495 333.059 529.266C333.514 530.25 333.969 531.235 334.438 532.25C334.89 533.225 335.342 534.199 335.809 535.203C339.42 543.682 339.307 554.251 336.375 562.938C332.083 573.047 324.197 582.052 314 586.438C309.344 588.094 304.919 588.683 300 589C300.083 589.928 300.165 590.856 300.25 591.812C300.193 601.18 295.31 609.407 289 616C280.022 624.208 270.131 627.358 258.121 627.211C247.769 626.511 238.15 621.749 231.125 614.125C222.924 603.995 220.917 592.852 222 580C224.424 569.743 229.928 561.694 238 555C243.817 551.454 249.363 548.823 256.25 548.938C258.106 548.968 258.106 548.968 260 549C259.917 547.907 259.835 546.814 259.75 545.688C259.802 535.842 264.693 528.176 271 521C270.056 520.49 270.056 520.49 269.094 519.969C257.628 513.476 250.706 505.719 246.348 493.113C245.816 489.883 245.869 486.708 245.875 483.438C245.871 482.765 245.867 482.093 245.863 481.4C245.869 478.325 246.02 475.94 247 473C246.072 473.083 245.144 473.165 244.187 473.25C234.801 473.193 226.614 468.302 220 462C212.268 454.038 208.878 445.058 208.5 434C208.859 423.158 212.505 414.573 219 406C218.166 405.792 217.332 405.585 216.473 405.371C204.601 402.121 196.546 396.531 190 386C185.023 376.737 184.151 365.132 187.023 355.016C187.346 354.02 187.668 353.025 188 352C187.466 351.841 186.933 351.683 186.383 351.52C173.804 347.58 163.424 342.028 157.062 329.938C154.269 323.725 152.656 317.888 153 311C152.091 311.143 152.091 311.143 151.164 311.289C139.093 312.886 129.677 309.622 119.75 302.75C112.941 295.941 109.405 287.903 106 279C105.296 279.228 104.592 279.456 103.867 279.691C93.323 282.761 82.5594 283.025 72.3788 278.43C65.5005 274.296 59.8642 268.324 54.9999 262C54.015 262.322 53.0302 262.645 52.0155 262.977C41.7204 265.9 29.3988 265.109 19.9999 260C11.4908 254.826 4.60939 246.826 1.49602 237.254C-1.05982 225.642 -0.263208 214.947 5.40618 204.449C11.2794 195.423 19.9779 189.089 30.4452 186.363C41.2407 184.828 50.2871 186.144 59.9999 191C59.6699 190.01 59.3399 189.02 58.9999 188C58.265 177.924 59.0349 169.148 64.8124 160.688C66.8084 157.863 66.8084 157.863 66.5624 154.5C66.0468 153.675 65.5311 152.85 64.9999 152C58.9461 140.573 56.7733 129.404 60.5624 116.687C64.4783 106.391 71.8108 98.8631 81.4569 93.6797C90.9398 89.6136 102.222 89.393 112 92.625C120.007 96.0464 125.687 101.198 131 108C135.858 106.265 139.954 103.622 144.271 100.834C147.132 99.024 149.628 97.5359 153 97C152.917 96.1131 152.835 95.2262 152.75 94.3125C152.794 83.3875 157.715 74.5081 165.035 66.8789C173.422 58.8173 182.874 55.694 194.383 55.8477C206.62 56.5599 215.819 61.9856 224 71C227.175 75.7471 229.691 80.4322 231 86C231.588 86.1503 232.176 86.3007 232.781 86.4556C245.767 89.8062 258.474 93.2955 270.547 99.2578C273.763 100.231 275.492 99.6025 278.688 98.625C284.35 97.1723 289.566 96.6863 295.375 96.6875C296.498 96.68 296.498 96.68 297.643 96.6724C302.437 96.7311 306.448 97.4927 311 99C311.102 98.3415 311.205 97.6831 311.31 97.0046C312.501 89.8747 314.316 83.157 316.625 76.3125C316.977 75.2659 317.329 74.2194 317.691 73.1411C320.51 64.9864 323.836 57.3285 328.013 49.7852C328.998 48.0041 329.947 46.2074 330.895 44.4062C339.138 29.0277 353.518 6.9416 370.5 0.999997C388.21 -2.7088 404.188 0.879331 419 11.0625ZM354.438 27.1875C348.966 33.7201 344.32 40.6644 340 48C339.659 48.5741 339.317 49.1482 338.966 49.7397C331.118 63.1253 317.095 88.0511 320 104C322.336 106.323 322.336 106.323 325.375 108.25C326.373 108.936 327.37 109.622 328.398 110.328C330.853 111.971 330.853 111.971 333 113C333.401 112.201 333.802 111.402 334.215 110.578C340.05 99.3048 347.265 89.65 355.879 80.3047C357.819 78.1964 359.697 76.0493 361.562 73.875C366.899 67.7639 372.663 62.1911 378.812 56.9062C381.355 54.6905 383.831 52.409 386.312 50.125C390.841 45.9903 395.515 42.0939 400.281 38.2383C408.369 31.8017 408.369 31.8017 415 24C414.791 21.453 414.288 20.3076 412.539 18.4375C390.981 2.24659 370.822 8.23784 354.438 27.1875ZM172 73C167.804 77.3458 164.873 82.272 163 88C163.382 90.1543 163.382 90.1543 164 92C165.091 91.6623 166.181 91.3245 167.305 90.9766C184.926 85.6916 201.672 84.6556 220 85C217.27 76.3956 212.689 72.4213 205 68C193.206 62.7156 182.055 65.2539 172 73ZM416 81C411.748 87.0698 410.86 91.6949 411 99C412.108 99.2378 412.108 99.2378 413.238 99.4805C419.774 100.984 425.604 102.957 431.625 105.914C437.403 108.556 443.277 108.995 449.25 106.812C454.158 103.578 456.679 99.8798 457.871 94.1758C458.205 88.5475 455.751 83.605 452.438 79.1875C447.887 74.3203 441.961 72.4231 435.5 71.5C427.909 72.5845 421.362 75.5101 416 81ZM177 97C175.778 97.3403 174.556 97.6806 173.297 98.0312C146.541 106.179 122.515 125.852 107 149C107 149.66 107 150.32 107 151C107.701 151.015 108.402 151.029 109.124 151.044C112.312 151.119 115.5 151.215 118.687 151.312C119.79 151.335 120.893 151.358 122.029 151.381C123.629 151.434 123.629 151.434 125.262 151.488C126.241 151.514 127.22 151.541 128.229 151.568C131.734 152.115 134.472 153.472 137 156C137.741 161.833 137.364 165.137 134.062 170.062C116.424 192.696 87.904 197.628 61.2152 202.421C56.138 203.335 51.069 204.292 45.9999 205.25C45.1157 205.413 44.2315 205.576 43.3204 205.745C39.038 206.479 39.038 206.479 34.9999 208C34.5937 212.265 35.0195 214.898 37.6171 218.367C49.4807 232.376 66.1114 239.541 84.2264 241.754C99.2071 242.731 113.672 242.172 128.469 239.656C139.074 237.944 139.074 237.944 142.937 240.062C145.616 244.946 144.965 249.749 144 255C143.963 256.397 143.952 257.794 143.965 259.191C143.976 260.448 143.988 261.705 144 263C149.553 263.104 155.096 263.133 160.649 263.038C162.576 263.007 164.503 263.005 166.43 263.012C171.078 262.676 173.188 261.933 176.297 258.359C182.079 249.454 185.258 240.07 187.75 229.812C191.084 217.023 197.12 205.825 206 196C205.34 195.67 204.68 195.34 204 195C202.314 195.76 200.63 196.521 198.949 197.293C195.933 198.387 193.16 198.253 190 198C189 197 189 197 188.719 193.492C188.781 188.516 190.466 184.601 192.5 180.125C194.968 175.231 194.968 175.231 196 170C182.619 173.521 171.887 181.603 162 191C149.061 202.682 134.619 210.065 118 215C117.361 215.194 116.722 215.389 116.064 215.589C101.772 219.807 86.7785 220.691 71.9999 222C71.9999 221.34 71.9999 220.68 71.9999 220C72.6715 219.986 73.3431 219.972 74.035 219.957C106.057 218.428 135.977 206.659 158.25 183.652C169.495 172.061 181.924 162.852 198.656 161.762C203.145 160.739 204.756 158.295 207.25 154.688C208.202 153.399 209.158 152.114 210.117 150.832C210.596 150.186 211.076 149.539 211.569 148.874C224.295 132.209 241.635 117.06 260 107C260 106.34 260 105.68 260 105C233.689 95.121 204.725 88.9299 177 97ZM74.9999 111C70.2318 117.163 67.4296 123.822 67.6913 131.766C68.8964 140.492 72.7345 146.977 78.9999 153C79.7836 153.763 80.5674 154.526 81.3749 155.312C86.3261 158.495 92.0515 160.576 97.9999 160C97.3399 159.67 96.6799 159.34 95.9999 159C94.9905 153.146 95.6839 149.89 99.0702 144.916C103.582 138.722 108.507 132.969 113.773 127.402C116.05 125.006 116.05 125.006 118.148 122.305C119.931 120.086 121.656 118.59 124 117C123.509 112.74 120.99 109.872 118 107C103.861 96.1805 86.9282 97.9293 74.9999 111ZM232.523 139.544C231.07 140.933 229.6 142.305 228.129 143.676C218.103 153.275 210.325 164.061 203.75 176.25C203.157 177.341 203.157 177.341 202.552 178.454C201.616 180.261 200.798 182.128 200 184C200.33 184.99 200.66 185.98 201 187C202.485 186.242 202.485 186.242 204 185.469C205.333 184.812 206.666 184.155 208 183.5C208.648 183.166 209.297 182.832 209.965 182.488C214.88 180.103 218.539 179.569 224 180C225 181 225 181 225.312 183.688C224.714 190.032 219.995 194.242 215.75 198.688C204.972 210.239 198.22 221.33 194.687 236.75C191.136 252.034 183.77 263.68 173.086 275.137C172.586 275.675 172.085 276.213 171.57 276.767C170.586 277.817 169.594 278.858 168.593 279.891C165.174 283.41 165.174 283.41 164 288C168.549 294.739 176.813 296.14 184.367 297.691C210.306 301.897 238.292 297.36 259.938 281.902C268.931 274.82 276.291 266.932 281.906 256.934C283 255 283 255 284 254C286.333 253.959 288.667 253.958 291 254C291.045 254.933 291.09 255.865 291.136 256.826C291.31 260.314 291.496 263.801 291.69 267.287C291.771 268.791 291.847 270.296 291.919 271.8C292.024 273.973 292.145 276.145 292.27 278.316C292.338 279.62 292.406 280.924 292.476 282.268C293.057 286.403 294.2 289.262 296 293C311.008 287.487 318.248 273.408 324.763 259.661C327.583 253.42 329.618 247.058 331.562 240.5C336.642 223.673 345.853 216.053 360.488 207.312C375.611 198.275 389.449 188.992 394 171C395.69 161.29 395.102 154.203 390.062 145.75C383.324 138.475 371.281 136.988 362 135.5C350.254 133.617 339.655 130.77 330.312 123.125C329.773 122.693 329.233 122.261 328.677 121.816C326.263 119.881 323.884 117.904 321.496 115.937C290.475 90.9052 255.824 117.216 232.523 139.544ZM74.9999 162C69.8767 169.352 67.3324 175.822 67.9999 185C68.6399 187.341 69.3033 189.675 69.9999 192C90.5202 188.55 108.823 182.815 124 168C123.34 166.35 122.68 164.7 122 163C118.805 163 117.404 163.591 114.562 164.938C105.99 168.984 95.8496 169.437 86.6444 167.176C82.6153 165.713 78.8164 163.943 74.9999 162ZM411 181C410.974 182.172 410.948 183.344 410.922 184.551C410.652 192.847 410.274 200.136 406.84 207.836C405.759 210.235 405.759 210.235 406 214C406.652 214.303 407.305 214.606 407.977 214.918C417.413 219.441 422.105 223.62 427.484 232.574C428.913 235.063 428.913 235.063 431 237C431.818 236.42 431.818 236.42 432.652 235.828C436.586 233.111 440.278 230.784 444.75 229.062C449.464 227.034 451.844 224.655 454 220C457.15 211.785 457.748 204.418 455 196C450.685 187.111 443.934 181.035 434.672 177.695C425.983 175.434 418.926 177.149 411 181ZM400 181C399.671 181.678 399.343 182.356 399.004 183.055C390.578 199.541 377.082 208.719 361 217C361.33 217.66 361.66 218.32 362 219C369.091 221.317 375.985 221.577 383 219C391.876 214.476 397.88 208.048 401.312 198.695C402.851 192.665 403.19 186.486 400 181ZM16.9999 205C10.58 213.888 9.16575 221.084 9.99993 232C11.8633 239.588 16.8891 246.202 23.3124 250.574C30.5325 254.719 36.6794 255.703 44.9999 255C47.5819 254.237 49.6098 253.275 51.9999 252C52.4524 248.031 52.327 244.79 50.9999 241C47.9874 238.282 44.8149 236.296 41.3749 234.176C34.2448 229.755 29.3199 223.395 26.5624 215.492C25.6481 211.442 25.65 207.944 26.9999 204C30.4633 199.613 35.4375 198.901 40.6718 197.711C41.44 197.476 42.2083 197.242 42.9999 197C43.3299 196.34 43.6599 195.68 43.9999 195C33.3332 194.407 24.5589 197.225 16.9999 205ZM466.473 212.082C463.388 216.099 461 221.882 461 227C461.834 227.219 462.668 227.438 463.527 227.664C475.388 231.006 485.042 236.153 491.25 247.23C493.492 252.02 494.875 256.843 496 262C502.167 261.615 506.608 257.457 510.742 253.211C516.045 246.8 518.431 239.252 518 230.938C516.675 222.054 512.087 214.472 505 209C492.456 201.423 477.56 201.886 466.473 212.082ZM392.438 223.312C387.595 226.511 382.582 227.657 377 229C374.664 229.658 372.33 230.323 370 231C370.3 232.004 370.601 233.008 370.91 234.043C374.532 246.789 374.535 257.364 370 270C376.447 276.112 382.526 280.401 391.613 281.203C395.408 280.88 398.249 279.177 401.52 277.316C403.924 276.04 406.062 275.36 408.688 274.688C414.702 272.793 417.999 268.424 421.098 263.121C424.383 255.803 424.098 247.205 421.438 239.75C416.913 229.982 410.046 224.741 400 221C395.89 221 395.479 221.086 392.438 223.312ZM350 225C343.86 231.419 341.353 237.703 338.703 246.082C335.714 255.462 332.234 264.127 327.637 272.84C325.945 275.905 325.945 275.905 325 279C327.992 280.023 330.131 280.396 333.062 279.059C333.826 278.627 334.589 278.195 335.375 277.75C340.026 275.149 344.066 274.431 349.25 273.75C353.143 273.179 356.222 272.671 359.289 270.027C364.749 261.973 365.906 253.545 365 244C363.274 237.22 359.121 231.683 354 227C351.885 225.79 351.885 225.79 350 225ZM434 246C431.847 249.23 431.766 250.263 431.625 254C431.263 259.357 429.823 263.61 427.645 268.492C426.803 271.008 426.803 271.008 427.531 273.613C429.455 276.74 431.427 277.664 434.688 279.312C440.431 282.466 444.041 285.857 448 291C450.932 294.609 451.995 295.844 456.625 296.562C465.913 295.897 473.841 291.901 480 285C485.614 277.595 488.07 270.306 487 261C484.792 251.868 480.86 245.362 473 240.188C459.704 232.59 444.525 234.787 434 246ZM59.9999 245C61.4252 253.98 64.681 260.669 71.9374 266.375C80.2773 272.008 86.9029 273.004 96.9999 272C100.445 271.193 103.194 270.179 106 268C107.479 265.45 108.193 263.739 109 261C109.677 259.247 110.369 257.5 111.074 255.758C111.435 254.865 111.795 253.971 112.167 253.051C112.442 252.374 112.717 251.697 113 251C112.205 250.985 111.411 250.971 110.592 250.956C81.4901 250.36 81.4901 250.36 67.9999 247C67.0988 246.789 66.1978 246.577 65.2694 246.359C63.5059 245.934 61.7508 245.474 59.9999 245ZM521.93 251.758C521.252 252.869 520.574 253.98 519.875 255.125C516.791 259.982 513.908 263.119 509 266.312C505.436 268.592 505.436 268.592 503.012 271.91C502.654 274.078 502.72 275.821 503 278C503.07 278.795 503.139 279.591 503.211 280.41C504.423 289.127 509.09 296.273 515.957 301.715C522.581 305.881 530.198 308.276 538 307C546.991 304.82 553.525 301.008 558.824 293.371C563.189 285.73 564.451 278.696 563 270C560.398 262.015 556.207 255.461 549 251C540.758 246.916 528.44 243.085 521.93 251.758ZM124.492 251.305C119.016 257.056 115.927 264.562 115.5 272.5C115.952 280.652 119.153 288.351 124.84 294.207C132.509 300.572 139.934 302.838 149.84 302.41C153.78 301.899 156.565 300.963 160 299C159.732 298.464 159.464 297.928 159.187 297.375C158.796 296.591 158.404 295.808 158 295C157.443 294.092 156.886 293.185 156.312 292.25C154.673 288.19 154.464 285.064 156 281C157.691 278.671 159.498 276.629 161.504 274.566C163.115 273.24 163.115 273.24 163 272C161.749 272.017 161.749 272.017 160.473 272.035C142.616 272.178 142.616 272.178 138 268.812C133.504 262.489 135.228 255.336 136 248C131.338 247.93 128.157 248.134 124.492 251.305ZM281 278C278.973 279.096 278.973 279.096 277 280.75C276.319 281.281 275.639 281.812 274.938 282.359C273.978 283.171 273.978 283.171 273 284C272.402 284.459 271.804 284.918 271.188 285.391C269.737 286.989 269.737 286.989 270.184 289.391C270.984 291.949 271.975 294.302 273.062 296.75C276.771 306.653 275.419 317.723 274 328C275.579 328.986 277.164 329.963 278.75 330.938C280.073 331.755 280.073 331.755 281.422 332.59C287.493 335.911 294.239 335.772 301 335C310.135 332.046 316.65 327.01 321.309 318.652C324.534 311.61 325.361 304.636 323.164 297.152C321.26 292.152 321.26 292.152 318 288C317.539 288.519 317.077 289.039 316.602 289.574C310.857 295.717 304.404 301.001 295.688 301.625C291.091 300.846 289.716 299.754 287 296C284.847 290.51 284.446 284.834 284 279C283.01 278.67 282.02 278.34 281 278ZM332.602 290.457C330.775 292.761 330.775 292.761 331.23 294.812C331.484 295.534 331.738 296.256 332 297C332.673 307.418 332.205 316.257 328 326C329.325 326.039 329.325 326.039 330.676 326.078C343.679 326.693 352.093 329.621 362 338C362.99 338.66 363.98 339.32 365 340C375.218 333.801 381.018 327.829 384 316C385.312 308.045 382.781 300.494 378.598 293.734C373.298 286.944 366.005 282.835 357.535 281.422C347.959 280.956 339.407 283.485 332.602 290.457ZM393 293C390.685 296.472 391.098 297.444 391.699 301.367C392.58 309.074 392.756 316.968 390.562 324.438C389.892 327.341 389.76 328.506 391.074 331.211C395.978 337.361 402.664 340.555 410 343C419.955 343.849 428.265 342.19 436.145 335.867C442.32 329.653 445.513 321.869 446.375 313.25C446.102 304.977 442.588 297.627 436.922 291.719C430.39 285.878 423.115 282.447 414.164 282.758C405.584 283.718 399.244 287.079 393 293ZM485.562 291.625C484.979 292.365 484.395 293.105 483.793 293.867C478.53 300.128 471.593 301.91 463.855 303.715C460.795 304.794 460.795 304.794 459.148 307.715C456.361 315.687 456.978 323.809 460.5 331.438C465.005 339.342 470.769 344.299 479.363 347.34C487.814 349.456 495.442 348.256 503 344C510.912 338.517 515.743 331.754 517.836 322.371C518.07 318.984 517.845 316.303 517 313C514.509 310.545 514.509 310.545 511.312 308.625C504.552 304.014 500.662 299.047 497.562 291.5C496.141 288.693 496.141 288.693 492.75 287.625C488.449 288.055 488.177 288.466 485.562 291.625ZM253.875 295.688C238.974 303.173 223.342 305.587 207 308C206.761 317.349 208.623 324.604 214.75 331.938C221.633 339.023 229.207 341.352 239 342C247.559 341.591 254.558 336.866 260.312 330.75C265.465 324.205 267.705 317.047 267.398 308.75C266.555 302.931 264.24 297.86 261 293C258.13 293 256.397 294.323 253.875 295.688ZM167.723 303.688C164.944 305.884 163.264 307.37 161.875 310.688C162.193 319.103 165.425 326.703 171 333C177.348 338.229 184.605 342.12 193 342C197.211 340.195 200.544 336.974 204 334C203.732 333.196 203.464 332.391 203.187 331.562C202.6 329.799 202.6 329.799 202 328C201.747 327.335 201.495 326.67 201.234 325.984C199.047 320.022 198.343 314.326 198 308C197.436 307.92 196.872 307.839 196.291 307.756C193.693 307.384 191.097 307.004 188.5 306.625C187.613 306.499 186.726 306.372 185.812 306.242C181.646 305.629 177.639 304.942 173.59 303.773C170.198 302.74 170.198 302.74 167.723 303.688ZM309 347C304.047 354.344 302.244 361.234 303.625 369.938C305.753 379.066 310.334 385.626 318 391C324.503 394.647 331.778 396.129 339.133 394.539C348.228 391.846 354.768 387.302 359.809 379.246C363.798 371.725 364.409 363.686 362.348 355.367C358.641 346.235 351.983 339.869 343 336C329.506 331.746 317.961 336.867 309 347ZM436.922 345.488C435 347 435 347 431.688 349.062C428.696 351.219 427.514 352.655 426 356C426.29 359.02 426.29 359.02 427.312 362.125C429.195 369.261 430.066 376.041 428.125 383.25C427.979 386.473 428.442 387.083 430.375 389.562C435.559 395.025 442.155 398.567 449.664 399.238C459.899 399.495 467.685 397.149 475.242 390.066C481.765 382.399 483.726 373.806 483 364C482.498 360.079 482.498 360.079 480 357C477.113 355.539 474.183 354.429 471.148 353.309C465.248 350.856 460.046 347.108 456.75 341.562C455.283 338.784 455.283 338.784 452.688 338.5C446.254 339.697 442.003 341.422 436.922 345.488ZM254.469 350.035C249.451 356.748 247.242 364.689 248 373C249.479 381.424 253.265 388.253 260.023 393.602C267.152 398.272 274.465 400.416 283 399C285.244 397.736 287.008 396.298 288.941 394.602C292.522 391.816 296.75 390.481 301 389C300.107 384.972 298.532 381.328 296.938 377.535C293.437 368.069 294.917 359.191 297.539 349.688C297.691 348.801 297.843 347.914 298 347C295.272 344.272 292.351 344.136 288.688 343.5C284.251 342.717 280.16 341.775 276 340C267.774 338.661 259.843 344.242 254.469 350.035ZM212.008 344.574C211.386 344.942 210.765 345.309 210.125 345.688C207.371 347.277 205.385 348.174 202.25 349.062C197.887 351.664 197.105 354.276 195.66 359.031C193.785 367.464 194.794 374.42 199 382C204.057 389.31 210.946 394.991 219.809 396.777C228.245 397.634 236.029 395.963 243 391C244.229 387.312 243.612 386.694 242.062 383.25C237.88 372.258 239.566 360.977 243 350C242.357 350.046 241.714 350.093 241.051 350.141C232.244 350.492 224.337 348.503 216.359 344.762C214.068 343.779 214.068 343.779 212.008 344.574ZM375 349C374.245 349.376 373.489 349.753 372.711 350.141C370.603 352.019 370.603 352.019 370.934 355.59C371.087 357.041 371.256 358.49 371.438 359.938C372.162 367.549 371.387 373.686 369 381C368.656 382.331 368.318 383.663 368 385C369.359 385.238 369.359 385.238 370.746 385.48C381.717 387.582 390.085 390.975 398 399C398.66 399.99 399.32 400.98 400 402C406.028 401.623 410.473 397.605 414.52 393.434C419.353 387.373 421.411 379.626 421 371.938C420.013 365.2 416.901 359.673 413 354.188C408.985 351.26 404.723 349.769 400.059 348.113C397 347 397 347 394.859 345.879C388.197 342.73 380.959 345.593 375 349ZM346.438 403.312C345.726 404.148 345.726 404.148 345 405C345.205 405.603 345.41 406.207 345.621 406.828C345.891 407.627 346.16 408.427 346.438 409.25C346.704 410.039 346.971 410.828 347.246 411.641C350.716 422.5 349.793 434.343 346 445C354.423 451.76 360.375 454.741 371.359 454.473C379.971 453.355 387.282 449.04 392.598 442.191C397.297 434.847 399.207 427.696 398 419C395.768 410.084 390.683 403.289 383.125 398.125C370.798 391.002 356.707 394.045 346.438 403.312ZM300 398C292.79 401.809 287.277 406.719 283.438 413.938C282.714 417.158 282.714 417.158 284.461 420.562C286.392 425.432 286.234 429.892 286.188 435.062C286.262 441.655 286.262 441.655 288.52 447.715C290.587 449.579 292.504 450.778 295 452C295.673 452.422 296.346 452.843 297.039 453.277C303.582 456.917 310.717 457.036 318 456C327.145 453.052 333.645 448.019 338.309 439.652C341.944 431.714 342.342 423.977 339.375 415.75C337.272 411.189 335.169 406.96 331 404C328.049 402.998 325.148 402.355 322.09 401.762C318.916 400.979 316.625 399.824 313.812 398.188C308.654 395.468 305.284 395.646 300 398ZM421.816 399.301C413.978 406.297 409.579 413.618 408.75 424.188C409.349 433.326 412.393 440.565 419 447C427.834 453.469 435.115 454.896 446 454C453.59 452.085 460.189 447.129 464.574 440.688C469.027 432.93 470.441 425.26 468.398 416.387C467.252 412.849 466.077 410.115 464 407C462.034 406.65 462.034 406.65 459.781 406.848C458.936 406.878 458.09 406.909 457.219 406.94C456.322 406.981 455.425 407.021 454.5 407.062C443.659 407.312 436.858 405.116 428 399C425.235 397.798 424.454 397.73 421.816 399.301ZM225 415C220.232 421.163 217.43 427.822 217.691 435.766C219.001 445.249 223.427 452.775 231.02 458.531C238.046 463.153 244.605 464.965 253 464C262.132 461.792 268.638 457.86 273.812 450C278.299 442.149 279.53 434.129 277.312 425.246C274.016 416.25 268.543 410.28 260 406C246.873 400.895 234.318 404.79 225 415ZM403 441C402.694 441.629 402.389 442.258 402.074 442.906C396.468 453.393 388.181 458.785 377.02 462.406C376.02 462.7 376.02 462.7 375 463C374.33 472.956 375.955 479.598 382.375 487.312C387.672 492.994 393.29 496.492 401.113 497.336C411.653 497.465 418.505 495.164 426.211 487.902C432.284 481.445 434.449 474.861 435 466C434.505 464.515 434.505 464.515 434 463C431.247 461.96 431.247 461.96 427.938 461.188C416.395 457.845 409.978 450.43 403 441ZM282 454C280.555 455.702 279.12 457.412 277.688 459.125C271.963 465.709 265.261 469.246 257 472C253.68 480.388 254.359 488.053 257.68 496.355C261.482 503.971 267.25 508.662 275 512C283.025 514.548 291.195 513.839 298.688 510.188C302.2 508.303 303.765 507.352 306 504C305.532 501.437 305.532 501.437 304.562 498.625C301.937 488.92 302.866 480.183 307.16 471.121C308.245 468.76 308.245 468.76 308 465C307.091 464.87 307.091 464.87 306.164 464.738C297.264 463.246 289.841 459.959 283 454C282.67 454 282.34 454 282 454ZM318 470C311.839 477.944 310.822 486.182 312 496C315.145 505.647 320.311 511.624 329.125 516.312C336.944 519.929 344.393 519.684 352.512 517.035C360.706 513.626 366.636 507.315 370.211 499.277C372.69 491.75 371.56 487.02 368.316 479.906C367 477 367 477 366.25 473.188C364 467.45 359.167 463.682 353.793 460.828C340.363 455.698 327.59 459.811 318 470ZM275.996 529.605C270.941 535.67 269.363 541.169 269 549C269.773 549.291 270.547 549.583 271.344 549.883C283.279 554.58 290.902 559.875 296.258 571.801C297.223 574.186 298.14 576.576 299 579C306.3 579.995 311.929 576.852 318 573C324.696 567.512 327.996 560.139 329.379 551.684C329.848 543.223 326.604 535.481 321.25 529.062C316.179 523.764 310.117 520.311 302.688 519.75C292.102 520.003 283.571 521.906 275.996 529.605ZM237 569C232.181 576.779 230.081 583.863 231 593C233.233 601.932 238.336 608.753 245.937 613.875C253.439 618.129 260.56 618.798 269 617C277.556 613.994 284.166 608.9 288.375 600.812C291.956 593.168 292.04 585.373 289.438 577.375C285.808 568.389 279.855 562.814 271 559C258.511 555.032 245.378 559.152 237 569Z" fill="#241315"/>
<path d="M1430 3.00001C1450.89 2.93813 1471.79 2.87626 1493.31 2.81251C1503.16 2.77154 1503.16 2.77154 1513.2 2.72974C1521.3 2.71619 1521.3 2.71619 1525.11 2.71368C1527.73 2.70911 1530.36 2.69982 1532.98 2.68328C1562.7 2.50442 1594.58 4.29923 1618 25C1618.92 25.7444 1618.92 25.7444 1619.86 26.5039C1627.76 33.4704 1632.58 44.3582 1633.24 54.75C1633.66 70.6365 1630.03 82.028 1619.2 93.9922C1611.15 101.762 1599.73 106.404 1589 109C1589.92 109.329 1590.84 109.657 1591.79 109.996C1612.75 117.758 1630.47 131 1640.38 151.562C1644.7 161.084 1646.55 170.269 1646.44 180.688C1646.43 181.734 1646.42 182.781 1646.41 183.859C1646.01 202.425 1640 219.108 1626.74 232.387C1601.61 256.363 1567.89 258.504 1534.92 258.304C1531.58 258.286 1528.25 258.286 1524.91 258.284C1515.21 258.268 1505.51 258.226 1495.81 258.188C1463.24 258.095 1463.24 258.095 1430 258C1430 173.85 1430 89.7 1430 3.00001ZM1473 20C1473 46.4 1473 72.8 1473 100C1487.28 100.117 1487.28 100.117 1501.56 100.195C1507.4 100.219 1513.23 100.247 1519.06 100.302C1523.77 100.346 1528.47 100.369 1533.18 100.38C1534.97 100.387 1536.76 100.401 1538.55 100.423C1553.71 100.6 1566.77 98.8704 1578.19 87.8945C1586.57 78.9273 1590.62 69.0955 1590.31 56.7422C1589.28 47.6921 1586.29 39.6293 1580 33C1579.49 32.4586 1578.97 31.9172 1578.45 31.3594C1565.87 19.4429 1549.05 19.7003 1532.86 19.8047C1531.33 19.8076 1529.79 19.8097 1528.25 19.8108C1522.6 19.8212 1516.96 19.8491 1511.31 19.875C1498.67 19.9163 1486.03 19.9575 1473 20ZM1473 117C1473 157.92 1473 198.84 1473 241C1492.92 241.093 1492.92 241.093 1513.25 241.188C1519.51 241.228 1519.51 241.228 1525.89 241.27C1529.68 241.28 1529.68 241.28 1533.46 241.286C1535.13 241.291 1536.8 241.301 1538.47 241.317C1555.6 241.467 1570.87 239.54 1583.9 227.297C1596.47 213.56 1600.73 194.986 1600.29 176.793C1598.94 158.859 1593.65 143.317 1580 131C1564.42 117.644 1546.42 116.832 1526.81 116.902C1525.43 116.904 1524.05 116.905 1522.67 116.905C1517.59 116.911 1512.51 116.925 1507.44 116.938C1490.39 116.968 1490.39 116.968 1473 117Z" fill="#241315"/>
<path d="M3187 35C3212.66 57.7379 3224.35 89.6762 3226.71 123.191C3227.93 144.359 3224.6 165.579 3216 185C3215.48 186.19 3214.95 187.38 3214.41 188.606C3200.3 218.522 3174.19 240.792 3143.46 252.469C3107.01 265.458 3067.08 264.033 3032 247.625C3024.55 244.008 3017.66 239.949 3011 235C3010.18 234.399 3009.36 233.799 3008.51 233.18C2980.76 211.99 2965.71 182.476 2960.44 148.359C2956.26 113.202 2964.45 79.6545 2985 51C2987.83 47.4875 2990.85 44.2311 2994 41C2994.84 40.0951 2995.69 39.1902 2996.55 38.2579C3003.14 31.3705 3009.97 26.1031 3018 21C3018.92 20.3955 3019.84 19.7909 3020.79 19.168C3034.52 10.6036 3050.2 5.18073 3066 2.00004C3067.05 1.77574 3068.1 1.55144 3069.19 1.32035C3111.94 -6.32936 3154.36 7.38948 3187 35ZM3034.41 44.8555C3022.16 59.8129 3014.53 77.3331 3010 96C3009.66 97.2659 3009.32 98.5318 3008.98 99.836C3004.15 121.299 3005.17 146.913 3011 168C3011.2 168.75 3011.4 169.501 3011.6 170.273C3019.03 197.607 3035.12 223.013 3059.74 237.625C3076.1 246.482 3094.02 248.643 3111.95 243.387C3123.77 239.546 3133.87 233.438 3143 225C3143.69 224.388 3144.38 223.775 3145.1 223.145C3167.54 202.218 3178.58 169.545 3180.13 139.545C3181.25 102.401 3171.23 64.9957 3145.37 37.4092C3132.04 23.7309 3114.58 15.2571 3095.44 14.5828C3070.86 14.355 3050.5 27.1201 3034.41 44.8555Z" fill="#241315"/>
<path d="M1730.43 402.832C1752.66 422.555 1768.83 452.052 1771 482C1771.73 498.947 1772.45 516.507 1768 533C1767.84 533.634 1767.68 534.267 1767.51 534.92C1763.08 552.108 1755.22 568.246 1744 582C1743.57 582.522 1743.15 583.043 1742.71 583.58C1720.22 610.622 1685.97 626.171 1651.4 629.802C1614.59 632.844 1577.68 622.535 1549.24 598.688C1546.77 596.511 1544.38 594.277 1542 592C1540.88 590.975 1540.88 590.975 1539.74 589.93C1518.84 570.159 1506.04 539.562 1504.88 510.961C1504.05 475.063 1510.45 443.077 1534 415C1534.67 414.18 1535.34 413.36 1536.02 412.516C1554.79 390.305 1583.03 376.958 1611 371C1612.06 370.772 1613.12 370.544 1614.21 370.309C1655.78 362.962 1698.7 375.501 1730.43 402.832ZM1588 405C1587.35 405.549 1586.7 406.098 1586.03 406.664C1562.97 427.923 1552.73 461.674 1551.12 492.063C1549.78 528.992 1561.14 564.674 1585.99 592.207C1599.51 606.399 1617.91 614.881 1637.5 615.5C1659.45 614.785 1679.06 604.046 1694.04 588.301C1710.74 568.674 1720.43 545.465 1724 520C1724.13 519.089 1724.26 518.177 1724.39 517.238C1728.42 482.188 1720.06 444.014 1698.29 415.867C1697.53 414.921 1696.78 413.975 1696 413C1695.16 411.89 1695.16 411.89 1694.31 410.758C1682.89 396.502 1665.09 386.277 1647 384C1623.89 382.163 1605.34 390.193 1588 405Z" fill="#241315"/>
<path d="M2695 3C2709.19 3 2723.38 3 2738 3C2738 36.66 2738 70.32 2738 105C2775.62 105 2813.24 105 2852 105C2852 71.34 2852 37.68 2852 3C2866.19 3 2880.38 3 2895 3C2895 87.15 2895 171.3 2895 258C2880.81 258 2866.62 258 2852 258C2852 213.12 2852 168.24 2852 122C2814.38 122 2776.76 122 2738 122C2738 166.88 2738 211.76 2738 258C2723.81 258 2709.62 258 2695 258C2695 173.85 2695 89.7 2695 3Z" fill="#241315"/>
<path d="M1157 3C1171.52 3 1186.04 3 1201 3C1201.01 8.82334 1201.02 14.6467 1201.03 20.6465C1201.06 39.9129 1201.12 59.1792 1201.18 78.4455C1201.22 90.1237 1201.26 101.802 1201.27 113.48C1201.28 123.664 1201.31 133.849 1201.35 144.033C1201.38 149.421 1201.39 154.808 1201.39 160.195C1201.39 165.278 1201.41 170.36 1201.44 175.442C1201.45 177.296 1201.45 179.15 1201.45 181.005C1201.4 198.767 1203.56 216.699 1216.19 230.379C1229.64 242.435 1246.16 244.844 1263.52 244.179C1273.99 243.423 1283.46 240.165 1292 234C1292.89 233.423 1293.77 232.845 1294.69 232.25C1305.82 221.422 1310.9 206.039 1311.25 190.773C1311.3 186.534 1311.31 182.296 1311.32 178.056C1311.33 176.143 1311.34 174.231 1311.35 172.318C1311.38 167.149 1311.39 161.981 1311.4 156.812C1311.42 151.401 1311.45 145.991 1311.47 140.58C1311.52 130.345 1311.56 120.111 1311.59 109.876C1311.63 98.219 1311.68 86.5624 1311.73 74.9058C1311.83 50.9372 1311.92 26.9686 1312 3C1326.52 3 1341.04 3 1356 3C1356.09 27.3662 1356.16 51.7323 1356.21 76.0986C1356.23 87.4136 1356.26 98.7285 1356.3 110.043C1356.34 119.911 1356.37 129.779 1356.38 139.647C1356.38 144.867 1356.39 150.087 1356.42 155.306C1356.45 160.231 1356.46 165.156 1356.45 170.08C1356.45 171.877 1356.46 173.673 1356.48 175.469C1356.59 189.666 1355.17 203.437 1348.44 216.25C1347.93 217.231 1347.93 217.231 1347.42 218.232C1336.97 237.51 1317.19 249.621 1296.77 255.973C1261.78 265.508 1223.74 263.077 1192 245C1175.31 235.019 1163.23 219.224 1158.38 200.331C1156.45 191.598 1156.6 182.978 1156.66 174.083C1156.66 172.209 1156.66 170.335 1156.66 168.461C1156.66 163.413 1156.67 158.364 1156.7 153.315C1156.71 148.025 1156.72 142.735 1156.72 137.444C1156.73 127.443 1156.75 117.442 1156.78 107.441C1156.82 96.048 1156.83 84.6549 1156.85 73.2618C1156.88 49.8412 1156.94 26.4206 1157 3Z" fill="#241315"/>
<path d="M1818 372C1833.51 372 1849.02 372 1865 372C1869.5 378.426 1873.74 384.706 1877.69 391.438C1881.64 398.1 1885.66 404.71 1889.81 411.25C1890.55 412.407 1890.55 412.407 1891.3 413.587C1892.32 415.203 1893.35 416.819 1894.38 418.435C1903.37 432.644 1912.21 446.952 1921.02 461.283C1927.95 472.561 1934.97 483.783 1942 495C1950.31 508.255 1958.59 521.526 1966.76 534.867C1973.76 546.292 1980.9 557.633 1988 569C1988.5 471.485 1988.5 471.485 1989 372C1994.94 372 2000.88 372 2007 372C2007 456.15 2007 540.3 2007 627C1996.11 627 1985.22 627 1974 627C1965.27 617.15 1965.27 617.15 1963.48 612.641C1961.14 607.167 1958.22 602.392 1954.94 597.438C1953.94 595.862 1952.95 594.284 1951.96 592.703C1949.02 588.028 1946.07 583.357 1943.12 578.688C1942.64 577.911 1942.15 577.135 1941.64 576.336C1937.77 570.215 1933.89 564.106 1930 558C1923.15 547.247 1916.34 536.47 1909.54 525.687C1903.71 516.446 1897.87 507.215 1892 498C1885.15 487.247 1878.34 476.47 1871.54 465.687C1865.65 456.343 1859.74 447.008 1853.81 437.688C1853.27 436.829 1852.72 435.971 1852.16 435.087C1847.46 427.709 1842.73 420.357 1838 413C1837.67 483.62 1837.34 554.24 1837 627C1830.73 627 1824.46 627 1818 627C1818 542.85 1818 458.7 1818 372Z" fill="#241315"/>
<path d="M2430 3C2445.51 3 2461.02 3 2477 3C2481.5 9.42563 2485.74 15.706 2489.69 22.4375C2493.64 29.0997 2497.66 35.7104 2501.81 42.25C2502.55 43.407 2502.55 43.407 2503.3 44.5874C2504.32 46.2033 2505.35 47.8192 2506.38 49.4351C2515.37 63.6437 2524.21 77.9517 2533.02 92.283C2539.95 103.561 2546.97 114.783 2554 126C2562.31 139.255 2570.59 152.526 2578.76 165.867C2585.76 177.292 2592.9 188.633 2600 200C2600.5 102.485 2600.5 102.485 2601 3C2606.94 3 2612.88 3 2619 3C2619 87.15 2619 171.3 2619 258C2608.11 258 2597.22 258 2586 258C2577.27 248.15 2577.27 248.15 2575.48 243.641C2573.14 238.167 2570.22 233.392 2566.94 228.438C2565.94 226.862 2564.95 225.284 2563.96 223.703C2561.02 219.028 2558.07 214.357 2555.12 209.688C2554.64 208.911 2554.15 208.135 2553.64 207.336C2549.77 201.215 2545.89 195.106 2542 189C2535.15 178.247 2528.34 167.47 2521.54 156.687C2515.71 147.446 2509.87 138.215 2504 129C2497.15 118.247 2490.34 107.47 2483.54 96.6865C2477.65 87.3431 2471.74 78.0082 2465.81 68.6875C2465.27 67.8292 2464.72 66.971 2464.16 66.0867C2459.46 58.7092 2454.73 51.3567 2450 44C2449.67 114.62 2449.34 185.24 2449 258C2442.73 258 2436.46 258 2430 258C2430 173.85 2430 89.7 2430 3Z" fill="#241315"/>
<path d="M684 372C699.51 372 715.02 372 731 372C745.31 394.658 745.31 394.658 750.25 402.562C750.868 403.551 751.486 404.539 752.122 405.557C757.533 414.226 762.884 422.93 768.229 431.639C772.111 437.954 776.027 444.243 780 450.5C784.671 457.855 789.254 465.262 793.812 472.688C801.474 485.168 809.223 497.591 817 510C826.809 525.65 836.546 541.341 846.202 557.086C848.453 560.733 850.728 564.365 853 568C853.33 503.32 853.66 438.64 854 372C860.27 372 866.54 372 873 372C873 456.15 873 540.3 873 627C862.11 627 851.22 627 840 627C835.617 620.738 831.349 614.533 827.312 608.062C826.264 606.393 825.216 604.724 824.168 603.055C823.641 602.214 823.114 601.373 822.572 600.507C820.098 596.562 817.612 592.624 815.125 588.688C814.636 587.912 814.146 587.137 813.642 586.338C809.775 580.217 805.89 574.107 802 568C795.151 557.247 788.342 546.47 781.541 535.687C775.713 526.446 769.869 517.215 764 508C757.151 497.247 750.342 486.47 743.541 475.687C737.128 465.519 730.693 455.366 724.233 445.227C719.77 438.219 715.329 431.198 710.906 424.164C710.45 423.44 709.994 422.715 709.523 421.969C708.934 421.032 708.934 421.032 708.333 420.076C706.59 417.362 704.79 414.684 703 412C702.67 482.95 702.34 553.9 702 627C696.06 627 690.12 627 684 627C684 542.85 684 458.7 684 372Z" fill="#241315"/>
<path d="M2137 372C2150.53 372 2164.06 372 2178 372C2179.25 375.558 2180.49 379.116 2181.78 382.781C2190.35 407.233 2198.93 431.678 2207.59 456.097C2213.26 472.056 2218.88 488.025 2224.5 504C2230.2 520.202 2235.9 536.4 2241.63 552.588C2242.33 554.558 2243.03 556.529 2243.73 558.5C2247.29 568.557 2250.86 578.61 2254.46 588.653C2255.97 592.864 2257.47 597.075 2258.98 601.287C2260.04 604.252 2261.11 607.216 2262.18 610.18C2262.82 611.97 2263.46 613.76 2264.1 615.551C2264.39 616.367 2264.69 617.183 2264.99 618.024C2266.1 621.135 2267 623.672 2267 627C2251.16 627 2235.32 627 2219 627C2216.75 620.586 2214.5 614.171 2212.19 607.562C2211.5 605.618 2210.82 603.674 2210.12 601.67C2204.23 584.834 2198.64 567.928 2193 551C2160 550.67 2127 550.34 2093 550C2092.01 553.3 2091.02 556.6 2090 560C2089.21 562.363 2088.4 564.721 2087.56 567.07C2087.34 567.703 2087.12 568.335 2086.89 568.986C2086.16 571.033 2085.44 573.079 2084.71 575.125C2084.2 576.563 2083.69 578.001 2083.18 579.44C2082.12 582.432 2081.06 585.424 2080 588.416C2078.64 592.252 2077.28 596.091 2075.92 599.929C2074.88 602.889 2073.83 605.848 2072.78 608.808C2072.28 610.224 2071.77 611.64 2071.27 613.056C2070.58 615.026 2069.88 616.996 2069.18 618.965C2068.58 620.645 2068.58 620.645 2067.97 622.359C2067 625 2067 625 2066 627C2059.07 627 2052.14 627 2045 627C2047.25 616.876 2047.25 616.876 2048.55 613.401C2048.84 612.605 2049.13 611.81 2049.43 610.99C2049.75 610.149 2050.07 609.308 2050.39 608.441C2050.9 607.067 2050.9 607.067 2051.42 605.665C2052.16 603.675 2052.9 601.687 2053.64 599.699C2055.69 594.222 2057.71 588.737 2059.74 583.254C2060.38 581.519 2060.38 581.519 2061.04 579.749C2065.93 566.525 2070.71 553.262 2075.5 540C2082.31 521.161 2089.16 502.342 2096.09 483.547C2102.42 466.368 2108.66 449.157 2114.88 431.938C2122.11 411.903 2129.45 391.92 2137 372ZM2144 405C2143.8 405.559 2143.61 406.118 2143.41 406.693C2140.84 414.026 2138.26 421.357 2135.69 428.688C2135.06 430.488 2135.06 430.488 2134.41 432.324C2129.56 446.113 2124.69 459.893 2119.75 473.648C2119.33 474.825 2118.91 476.001 2118.47 477.213C2116.46 482.825 2114.44 488.435 2112.41 494.044C2111.66 496.114 2110.92 498.184 2110.17 500.254C2109.69 501.573 2109.69 501.573 2109.2 502.919C2105.62 512.89 2102.35 522.937 2099 533C2128.04 533 2157.08 533 2187 533C2185.72 527.237 2184.48 522.088 2182.61 516.576C2182.38 515.891 2182.15 515.205 2181.91 514.499C2181.15 512.249 2180.38 510.001 2179.61 507.754C2179.07 506.153 2178.52 504.552 2177.98 502.951C2176.83 499.567 2175.69 496.184 2174.53 492.801C2172.75 487.554 2170.97 482.304 2169.19 477.054C2168.89 476.189 2168.6 475.323 2168.3 474.432C2167.71 472.692 2167.12 470.953 2166.53 469.213C2165.65 466.624 2164.77 464.034 2163.89 461.445C2159.35 448.039 2154.84 434.621 2150.38 421.188C2150.09 420.319 2149.8 419.45 2149.5 418.554C2148 414.037 2146.5 409.519 2145 405C2144.67 405 2144.34 405 2144 405Z" fill="#241315"/>
<path d="M1003 372C1016.2 372 1029.4 372 1043 372C1048.62 385.499 1048.62 385.499 1050.32 390.384C1050.7 391.491 1051.09 392.599 1051.49 393.739C1052.09 395.485 1052.09 395.485 1052.7 397.266C1053.14 398.529 1053.58 399.792 1054.02 401.055C1054.95 403.73 1055.88 406.406 1056.81 409.082C1059.02 415.478 1061.25 421.87 1063.47 428.262C1064.22 430.419 1064.97 432.576 1065.72 434.733C1070 447.025 1074.33 459.298 1078.69 471.562C1080.06 475.418 1081.42 479.273 1082.79 483.129C1083.13 484.086 1083.47 485.042 1083.82 486.028C1088.07 498.01 1092.28 510.006 1096.5 522C1102.67 539.548 1108.85 557.091 1115.06 574.625C1115.42 575.621 1115.77 576.618 1116.13 577.644C1119.5 587.149 1122.87 596.652 1126.28 606.141C1126.53 606.82 1126.77 607.5 1127.02 608.2C1128.11 611.24 1129.21 614.278 1130.31 617.315C1130.67 618.322 1131.04 619.329 1131.41 620.367C1131.72 621.224 1132.03 622.081 1132.35 622.964C1133 625 1133 625 1133 627C1117.16 627 1101.32 627 1085 627C1080.5 615.747 1080.5 615.747 1078.63 610.253C1078.22 609.028 1077.8 607.804 1077.37 606.542C1076.93 605.241 1076.49 603.939 1076.05 602.637C1075.59 601.273 1075.13 599.909 1074.66 598.545C1073.7 595.708 1072.74 592.87 1071.78 590.031C1070.55 586.401 1069.32 582.772 1068.09 579.144C1067.14 576.337 1066.18 573.529 1065.23 570.72C1064.78 569.382 1064.33 568.043 1063.87 566.705C1063.24 564.838 1062.61 562.969 1061.98 561.1C1061.62 560.04 1061.26 558.98 1060.89 557.888C1060 555 1060 555 1059 550C1009.5 550.495 1009.5 550.495 959 551C949.957 576.319 940.924 601.639 932 627C924.74 627 917.48 627 910 627C914.353 613.525 919.077 600.228 924 586.954C929.682 571.63 935.261 556.271 940.814 540.9C947.091 523.524 953.39 506.156 959.803 488.83C965.211 474.214 970.514 459.561 975.811 444.905C988.142 410.792 988.142 410.792 994.287 394.076C994.881 392.459 995.475 390.841 996.067 389.224C996.869 387.036 997.674 384.85 998.48 382.664C998.923 381.462 999.365 380.26 999.821 379.022C1001 376 1001 376 1003 372ZM1010 406C1006.59 413.963 1003.5 421.979 1000.66 430.164C1000.07 431.867 1000.07 431.867 999.463 433.604C998.617 436.026 997.773 438.448 996.931 440.871C994.937 446.604 992.933 452.335 990.929 458.065C990.479 459.353 990.028 460.642 989.578 461.93C985.29 474.201 980.944 486.45 976.562 498.688C976.26 499.532 975.958 500.377 975.646 501.248C974.787 503.648 973.926 506.049 973.066 508.449C972.803 509.184 972.54 509.919 972.269 510.676C971.015 514.177 969.756 517.676 968.484 521.17C968.248 521.822 968.012 522.474 967.769 523.145C967.136 524.893 966.499 526.64 965.863 528.386C964.895 530.858 964.895 530.858 965 533C994.04 533 1023.08 533 1053 533C1051.09 525.984 1049.13 519.156 1046.76 512.309C1046.45 511.393 1046.13 510.477 1045.81 509.533C1045.13 507.543 1044.45 505.554 1043.76 503.565C1041.88 498.089 1040.01 492.609 1038.14 487.129C1037.54 485.36 1037.54 485.36 1036.92 483.555C1031.52 467.687 1026.23 451.78 1020.94 435.875C1020.44 434.369 1019.93 432.863 1019.43 431.357C1016.62 422.905 1013.81 414.453 1011 406C1010.67 406 1010.34 406 1010 406Z" fill="#241315"/>
<path d="M3430.06 12.4374C3430.84 12.7966 3431.61 13.1558 3432.41 13.5258C3443.14 18.743 3443.14 18.743 3447 22.9999C3448.06 26.2872 3447.94 29.3465 3447.78 32.7734C3447.77 33.6971 3447.76 34.6209 3447.75 35.5726C3447.7 38.5089 3447.6 41.4402 3447.5 44.3749C3447.46 46.371 3447.42 48.3671 3447.39 50.3632C3447.3 55.244 3447.16 60.1211 3447 64.9999C3444.36 64.9999 3441.72 64.9999 3439 64.9999C3438.65 64.0215 3438.3 63.0431 3437.93 62.0351C3434.04 51.5634 3429.29 43.6857 3421 35.9999C3420.51 35.4921 3420.02 34.9842 3419.51 34.4609C3406.65 21.9704 3386.56 14.4557 3368.84 13.8788C3353.56 14.3602 3338.64 18.6009 3327 28.9999C3320.52 36.7013 3316.18 46.36 3316.68 56.5273C3317.86 65.7003 3321 73.116 3328.41 78.8749C3338.57 85.6668 3349.85 89.4697 3361.54 92.7722C3363.57 93.3467 3365.6 93.9319 3367.62 94.5199C3373.37 96.1878 3379.12 97.8421 3384.88 99.478C3427.31 111.55 3427.31 111.55 3444 126C3444.73 126.623 3445.47 127.245 3446.22 127.887C3459.86 140.417 3466.22 158.86 3467.22 176.965C3467.79 195.752 3463.88 213.022 3452 228C3451.34 228.834 3450.69 229.668 3450.01 230.527C3434.76 248.651 3410.24 258.175 3387.12 260.719C3350.11 263.576 3313.95 254.633 3283 234C3282.64 232.089 3282.64 232.089 3282.66 229.734C3282.66 228.853 3282.66 227.972 3282.66 227.065C3282.68 226.113 3282.69 225.161 3282.71 224.18C3282.71 223.206 3282.72 222.232 3282.72 221.229C3282.74 218.111 3282.77 214.993 3282.81 211.875C3282.83 209.764 3282.84 207.654 3282.85 205.543C3282.89 200.362 3282.94 195.181 3283 190C3289.03 189.757 3289.03 189.757 3291 190C3293.25 192.492 3293.25 192.492 3295 195.875C3295.67 197.081 3296.34 198.284 3297.01 199.484C3297.34 200.083 3297.67 200.682 3298.01 201.299C3310.17 222.261 3332.81 237.045 3355.75 243.273C3376.26 247.854 3396.74 244.422 3414.75 233.75C3425.19 226.762 3432.04 216.743 3435.44 204.625C3437.5 192.77 3434.76 181.518 3428.39 171.465C3414.47 152.383 3388.36 147.608 3367 141.364C3362.54 140.059 3358.09 138.743 3353.63 137.429C3350.31 136.455 3346.98 135.498 3343.66 134.543C3321.52 128.094 3303.19 119.198 3291.44 98.2109C3283.65 82.1358 3282.12 62.9933 3288 45.9999C3295.34 27.4965 3309.12 15.7911 3326.89 7.88422C3359.56 -5.80793 3398.36 -2.33257 3430.06 12.4374Z" fill="#241315"/>
<path d="M2545.06 381.437C2545.84 381.797 2546.61 382.156 2547.41 382.526C2558.14 387.743 2558.14 387.743 2562 392C2563.06 395.287 2562.94 398.347 2562.78 401.773C2562.77 402.697 2562.76 403.621 2562.75 404.573C2562.7 407.509 2562.6 410.44 2562.5 413.375C2562.46 415.371 2562.42 417.367 2562.39 419.363C2562.3 424.244 2562.16 429.121 2562 434C2559.36 434 2556.72 434 2554 434C2553.58 432.766 2553.58 432.766 2553.15 431.508C2550.37 423.753 2547.07 417.479 2542 411C2541.28 409.989 2540.56 408.979 2539.81 407.937C2527.37 393.694 2506.4 384.949 2488 383.125C2472.69 382.441 2456.97 386.001 2445 396C2438.38 402.258 2432.93 409.677 2432 419C2431.94 419.632 2431.87 420.263 2431.81 420.914C2431.35 429.233 2433.9 436.866 2439.19 443.312C2449.59 454.11 2463.87 458.194 2477.92 462.18C2479.23 462.558 2480.54 462.938 2481.85 463.319C2487.33 464.911 2492.82 466.485 2498.31 468.056C2545.09 481.458 2545.09 481.458 2563 499C2563.63 499.59 2564.25 500.181 2564.9 500.789C2579.14 515.42 2582.46 536.382 2582.21 555.91C2581.67 574.037 2574.02 590.537 2561.75 603.75C2539.28 624.528 2509.64 630.952 2479.87 630.132C2450.76 628.793 2422.21 619.14 2398 603C2397.64 601.089 2397.64 601.089 2397.66 598.734C2397.66 597.853 2397.66 596.972 2397.66 596.065C2397.68 595.113 2397.69 594.161 2397.71 593.18C2397.71 592.206 2397.72 591.232 2397.72 590.229C2397.74 587.111 2397.77 583.993 2397.81 580.875C2397.83 578.764 2397.84 576.654 2397.85 574.543C2397.89 569.362 2397.94 564.181 2398 559C2404 558.703 2404 558.703 2406 559C2408.07 561.473 2409.32 563.378 2410.75 566.187C2415.51 574.602 2421.14 581.238 2428 588C2429.09 589.104 2429.09 589.104 2430.2 590.23C2445.88 605.191 2466.82 613.852 2488.44 614.375C2506.27 613.946 2524.14 609.03 2537.51 596.68C2546.39 587.32 2551.6 576.494 2551.25 563.453C2549.94 550.787 2545.29 540.682 2536 532C2524.76 523.299 2511.11 518.741 2497.6 514.906C2495.47 514.3 2493.34 513.681 2491.21 513.058C2485.16 511.294 2479.12 509.551 2473.06 507.819C2431.22 495.824 2431.22 495.824 2416 480C2415.4 479.417 2414.8 478.835 2414.18 478.234C2403.4 467.032 2399.46 450.607 2399.58 435.517C2400.11 420.285 2405.32 405.093 2415.95 393.891C2428.51 382.289 2443.34 374.728 2460 371C2460.94 370.776 2461.88 370.551 2462.85 370.32C2490.19 364.947 2520.01 369.766 2545.06 381.437Z" fill="#241315"/>
<path d="M875.875 13.3126C876.587 13.6427 877.298 13.9729 878.032 14.313C879.503 15.0323 880.955 15.7903 882.389 16.5801C883.821 17.359 885.265 18.1211 886.748 18.7984C897.766 23.8423 897.766 23.8423 899.73 28.868C900.78 34.1858 900.323 39.5066 899.938 44.875C899.876 46.4751 899.82 48.0754 899.772 49.6758C899.484 57.8025 898.849 65.9132 898 74.0001C894.575 74.8832 892.401 75.2662 889 74.0001C885.823 69.9084 883.52 65.4568 881.078 60.9019C878.597 56.5242 875.288 52.7831 872 49C870.937 47.7548 870.937 47.7548 869.852 46.4844C857.278 32.1016 839.87 17.0094 820 15.0001C802.39 13.8456 786.73 19.4779 773 30.5C771.315 31.9793 769.647 33.4779 768 35C767.308 35.6124 766.616 36.2247 765.902 36.8555C742.405 58.7647 732.405 93.0436 730.891 124.254C729.708 158.294 738.54 191.155 760 218C760.513 218.668 761.026 219.336 761.555 220.023C772.636 233.859 790.591 243.496 808 246C824.007 247.576 840.041 240.745 852.438 231C853.97 229.68 855.491 228.347 857 227C857.755 226.375 858.511 225.75 859.289 225.106C865.328 220.01 870.179 214.24 875 208C875.766 207.015 876.531 206.03 877.32 205.016C881.746 199.224 885.598 193.491 888.906 186.984C891 185 891 185 893.173 184.806C893.984 184.829 894.795 184.852 895.631 184.876C896.856 184.903 896.856 184.903 898.105 184.93C898.73 184.953 899.356 184.976 900 185C900.382 191.812 900.644 198.621 900.824 205.441C900.899 207.757 901.001 210.072 901.132 212.386C902.155 231.037 902.155 231.037 898.62 235.898C895.137 238.999 891.189 240.776 886.831 242.339C884.532 243.169 882.425 244.277 880.266 245.418C878.933 246.021 877.594 246.611 876.25 247.188C875.139 247.67 875.139 247.67 874.006 248.163C837.539 263.611 797.993 265.871 761 251C729.171 237.416 704.917 213.084 692 181C689.981 175.754 688.37 170.449 687 165C686.521 163.097 686.521 163.097 686.031 161.156C678.484 126.723 684.401 87.8913 703 58C705.788 53.7986 708.768 49.8686 712 46C712.82 45.0165 713.64 44.0329 714.484 43.0196C753.962 -2.81158 822.467 -11.5529 875.875 13.3126Z" fill="#241315"/>
<path d="M1363 395C1364 396 1364 396 1364.12 397.905C1364.12 398.737 1364.12 399.57 1364.11 400.428C1364.11 401.369 1364.11 402.31 1364.11 403.279C1364.11 404.302 1364.1 405.325 1364.1 406.379C1364.1 407.942 1364.1 407.942 1364.09 409.536C1364.09 412.878 1364.08 416.22 1364.06 419.562C1364.06 421.822 1364.05 424.082 1364.05 426.342C1364.04 431.895 1364.02 437.447 1364 443C1362.56 443.085 1361.12 443.146 1359.67 443.197C1358.87 443.233 1358.07 443.27 1357.24 443.307C1355 443 1355 443 1353.39 441.541C1352.06 439.634 1350.99 437.691 1349.94 435.625C1349.1 434.143 1348.25 432.664 1347.41 431.187C1347 430.466 1346.59 429.744 1346.18 429C1343.6 424.623 1340.32 420.824 1337 417C1335.92 415.739 1335.92 415.739 1334.82 414.453C1323.36 401.362 1310.5 391.913 1294 386C1293.33 385.754 1292.66 385.508 1291.96 385.254C1278.6 381.141 1264.4 384.4 1252.38 390.687C1246.03 394.161 1240.37 398.128 1235 403C1233.75 404.123 1233.75 404.123 1232.48 405.27C1225.94 411.478 1220.72 418.354 1216 426C1215.65 426.563 1215.3 427.126 1214.95 427.706C1195.34 460.169 1192.68 501.471 1201.07 537.816C1207.72 564.433 1222.53 589.924 1246 605C1260.94 613.774 1276.25 617.076 1293.18 613.164C1304.95 609.578 1315.03 603.385 1324 595C1324.81 594.254 1324.81 594.254 1325.63 593.493C1337.38 582.543 1347.81 570.292 1355.01 555.844C1357.48 553.552 1358.34 553.798 1361.62 553.885C1362.85 553.91 1362.85 553.91 1364.1 553.935C1364.73 553.957 1365.35 553.978 1366 554C1366.43 560.793 1366.73 567.582 1366.93 574.386C1367.02 576.695 1367.13 579.004 1367.28 581.311C1368.44 599.9 1368.44 599.9 1364.43 604.998C1359.84 608.865 1354.56 610.931 1349 613C1347.3 613.825 1345.61 614.661 1343.92 615.516C1342.54 616.11 1341.15 616.689 1339.75 617.25C1338.59 617.726 1338.59 617.726 1337.4 618.212C1300.14 633 1260.91 634.495 1223.81 618.687C1192.68 604.9 1169.37 579.492 1157 548C1151.72 532.991 1149.64 517.857 1149.68 501.999C1149.69 499.766 1149.66 497.534 1149.64 495.301C1149.49 462.129 1161.96 432.454 1184 408C1184.64 407.273 1185.29 406.546 1185.95 405.797C1231.33 357.36 1311.27 358.963 1363 395Z" fill="#241315"/>
<path d="M1712 3C1762.82 3 1813.64 3 1866 3C1865.34 4.65 1864.68 6.3 1864 8C1863.62 9.01379 1863.24 10.0276 1862.85 11.0721C1861.06 14.6991 1859.37 17.7158 1856 20C1848.8 22.2433 1840.78 21.3908 1833.34 21.1719C1831.11 21.1495 1828.88 21.1324 1826.65 21.1204C1820.8 21.0747 1814.95 20.957 1809.09 20.824C1802.06 20.6793 1795.03 20.6245 1788 20.5545C1777.33 20.4384 1766.67 20.2084 1756 20C1756 45.41 1756 70.82 1756 97C1787.02 97 1818.04 97 1850 97C1850 102.28 1850 107.56 1850 113C1818.98 113 1787.96 113 1756 113C1756 155.24 1756 197.48 1756 241C1793.29 241 1830.58 241 1869 241C1866.53 245.455 1866.53 245.455 1864 250C1863.2 251.487 1862.39 252.974 1861.57 254.506C1859.51 257.128 1858.4 257.901 1855.13 258.703C1851.38 258.989 1847.68 258.99 1843.92 258.908C1842.45 258.906 1840.99 258.907 1839.53 258.911C1835.62 258.913 1831.71 258.867 1827.81 258.81C1824.14 258.765 1820.47 258.763 1816.8 258.757C1806.07 258.715 1795.35 258.603 1784.62 258.5C1760.66 258.335 1736.69 258.17 1712 258C1712 173.85 1712 89.7 1712 3Z" fill="#241315"/>
<path d="M2057 3.00001C2071.85 3.00001 2086.7 3.00001 2102 3.00001C2109.2 24.4593 2116.33 45.9272 2123.19 67.5C2131.5 93.6696 2140.11 119.741 2148.73 145.813C2150.14 150.099 2151.56 154.386 2152.97 158.672C2153.24 159.489 2153.51 160.306 2153.79 161.148C2157.95 173.739 2162.03 186.348 2166 199C2171.2 185.982 2175.95 172.833 2180.56 159.599C2182.64 153.627 2184.74 147.659 2186.83 141.691C2187.26 140.466 2187.69 139.241 2188.13 137.978C2192.52 125.508 2196.97 113.064 2201.44 100.625C2201.82 99.5546 2202.21 98.4842 2202.6 97.3814C2204.17 93.0098 2205.74 88.6383 2207.31 84.2669C2212.19 70.7053 2217.03 57.1338 2221.88 43.5625C2222.72 41.1903 2223.57 38.818 2224.42 36.4458C2225.02 34.7614 2225.02 34.7614 2225.63 33.043C2226.4 30.8882 2227.17 28.7336 2227.94 26.5791C2229.52 22.1687 2231.09 17.7576 2232.64 13.3394C2233 12.3353 2233 12.3353 2233.36 11.311C2233.95 9.62861 2234.54 7.94511 2235.13 6.26149C2236 4.00001 2236 4.00001 2237 3.00001C2238.42 2.9135 2239.84 2.89296 2241.25 2.90236C2242.53 2.90719 2242.53 2.90719 2243.84 2.91212C2244.74 2.9205 2245.64 2.92888 2246.56 2.93751C2247.46 2.94202 2248.37 2.94654 2249.29 2.95119C2251.53 2.96301 2253.76 2.97949 2256 3.00001C2249.68 22.6138 2242.82 42.0189 2235.84 61.4055C2229.57 78.8079 2223.37 96.2339 2217.25 113.688C2211.48 130.12 2205.69 146.542 2199.81 162.938C2192.91 182.234 2186.06 201.551 2179.21 220.868C2178.51 222.84 2177.81 224.812 2177.11 226.784C2176.25 229.2 2175.39 231.617 2174.54 234.033C2171.7 242.026 2168.85 250.014 2166 258C2158.74 258 2151.48 258 2144 258C2143.42 256.306 2142.84 254.611 2142.24 252.865C2131.41 221.325 2120.59 189.786 2109.75 158.25C2109.52 157.589 2109.3 156.927 2109.06 156.246C2102.96 138.497 2096.85 120.752 2090.71 103.014C2087.14 92.6772 2083.57 82.3389 2080 72C2079.76 71.3012 2079.52 70.6024 2079.27 69.8824C2076.07 60.6185 2072.88 51.3537 2069.69 42.0868C2068.37 38.269 2067.06 34.4516 2065.74 30.6351C2064.51 27.0633 2063.28 23.4905 2062.05 19.9168C2061.6 18.5929 2061.14 17.2692 2060.68 15.946C2060.05 14.1332 2059.43 12.319 2058.81 10.5047C2058.46 9.48474 2058.11 8.46482 2057.75 7.414C2057 5.00001 2057 5.00001 2057 3.00001Z" fill="#241315"/>
<path d="M967 5C981.19 5 995.38 5 1010 5C1010 83.54 1010 162.08 1010 243C1046.63 243 1083.26 243 1121 243C1118.53 247.455 1118.53 247.455 1116 252C1115.36 253.487 1114.71 254.974 1114.05 256.506C1112.3 259.222 1111.43 259.891 1108.26 260.703C1104.56 260.991 1100.92 260.99 1097.21 260.908C1095.77 260.906 1094.33 260.907 1092.89 260.911C1089.03 260.913 1085.17 260.867 1081.31 260.81C1077.69 260.765 1074.07 260.763 1070.45 260.757C1059.86 260.715 1049.27 260.603 1038.69 260.5C1015.03 260.335 991.374 260.17 967 260C967 175.85 967 91.7 967 5Z" fill="#241315"/>
<path d="M2305 372C2319.52 372 2334.04 372 2349 372C2349 456.15 2349 540.3 2349 627C2334.48 627 2319.96 627 2305 627C2305 542.85 2305 458.7 2305 372Z" fill="#241315"/>
<path d="M1414 372C1428.52 372 1443.04 372 1458 372C1458 456.15 1458 540.3 1458 627C1443.48 627 1428.96 627 1414 627C1414 542.85 1414 458.7 1414 372Z" fill="#241315"/>
<path d="M2311 3C2325.52 3 2340.04 3 2355 3C2355 87.15 2355 171.3 2355 258C2340.48 258 2325.96 258 2311 258C2311 173.85 2311 89.7 2311 3Z" fill="#241315"/>
<path d="M333 133C333.99 133.99 333.99 133.99 335 135C334.357 135.51 333.714 136.021 333.051 136.547C323.473 144.253 313.806 152.254 305.906 161.723C304.373 163.555 302.812 165.342 301.219 167.121C292.174 177.28 283.976 187.987 276 199C275.503 199.687 275.005 200.373 274.493 201.081C268.526 209.389 263.145 217.986 257.875 226.75C252.976 234.885 248.037 242.651 242 250C241.549 250.56 241.099 251.12 240.635 251.696C231.313 263.24 221.3 273.776 207 279C204.148 279.152 204.148 279.152 202 279C202 278.34 202 277.68 202 277C203.758 275.668 203.758 275.668 206.125 274.188C223.318 262.993 233.93 244.193 245.062 227.375C256.478 210.155 268.787 193.616 282.805 178.406C284.644 176.39 286.43 174.344 288.211 172.277C301.476 157.088 316.03 143.869 333 133Z" fill="#241315"/>
</g>
</g>
<defs>
<clipPath id="clip0_606_339">
<rect width="3467" height="630" fill="white"/>
</clipPath>
</defs>
</svg>
