<svg width="2496" height="948" viewBox="0 0 2496 948" fill="none" xmlns="http://www.w3.org/2000/svg">
<g clip-path="url(#clip0_606_366)">
<rect width="2496" height="948" fill="#EAE8E8"/>
<path d="M-6.10352e-05 474C-6.10352e-05 947.067 -6.10352e-05 948 2.66661 948C5.33327 948 5.33327 947.067 5.33327 474.667V1.33328L1251.07 0.933284L2496.67 0.666617L1248.4 0.266617L-6.10352e-05 -4.94421e-05V474Z" fill="black"/>
<path d="M1611.07 31.3334C1611.47 32 1643.33 87.8667 1682 155.333C1720.8 222.8 1779.07 324.4 1811.6 381.067C1844 437.867 1870.67 484.667 1870.67 485.333C1870.67 486 1864.13 497.733 1856.13 511.6C1822.27 570.4 1613.6 934.267 1612.13 937.333L1610.53 940.667L1613.47 937.333C1647.2 898.267 1996.67 486 1996.67 485.2C1996.67 484.533 1921.33 395.333 1829.33 287.067C1607.87 26.4 1609.87 28.8 1611.07 31.3334Z" fill="black"/>
<path d="M2257.2 257.333C2151.33 381.867 2064.67 484.533 2064.67 485.2C2064.67 486.133 2432.4 920 2448.4 938C2451.87 941.867 2452.27 942.4 2423.73 892.667C2409.47 867.733 2380 816.4 2358.4 778.667C2336.67 740.933 2290.13 659.733 2254.8 598.267C2219.6 536.667 2190.67 485.867 2190.67 485.2C2190.67 484.4 2210.4 449.6 2234.53 407.6C2287.6 315.2 2364.67 180.8 2411.33 99.3332C2430.13 66.2666 2446.8 37.3332 2448.27 34.9332C2449.73 32.6666 2450.67 30.6666 2450.4 30.6666C2450.13 30.6666 2363.2 132.667 2257.2 257.333Z" fill="black"/>
<path d="M1868.13 190.667C1871.47 194.667 1888.27 214.8 1905.47 235.333C1935.6 271.2 1961.2 301.867 2009.73 359.733C2031.33 385.467 2032.53 386.667 2034.67 384.4C2036.93 382 2183.73 202.933 2194 190L2199.33 183.333L2192 189.467C2179.73 199.733 2035.47 318.933 2033.87 320.133C2033.07 320.8 2010 303.067 1973.87 273.867C1889.47 205.333 1870.93 190.4 1866.13 186.667C1862.67 184 1862.93 184.533 1868.13 190.667Z" fill="black"/>
<path d="M1550 392C1502.67 398.667 1473.33 426.933 1473.33 465.733C1473.33 482.4 1478.8 496.133 1489.47 506.533C1501.73 518.4 1521.6 526.933 1555.73 534.667C1597.33 544.133 1608 550.667 1608 566.267C1608 574.933 1603.2 581.333 1592.8 586.667L1583.6 591.333L1560.13 591.2C1538.67 591.2 1535.73 590.8 1524.93 587.6C1513.33 584 1497.33 576.667 1490.27 571.733C1488.13 570.133 1486 569.467 1485.47 570.133C1484.8 570.8 1480.93 579.067 1476.67 588.533L1468.93 605.867L1472.67 608.667C1482.4 616.533 1507.33 626.133 1528.67 630.267C1544.93 633.333 1580.4 633.333 1595.33 630.133C1632.4 622.133 1654.8 601.067 1658.53 570.533C1661.07 550.8 1655.6 533.067 1643.47 521.6C1630.53 509.333 1613.87 502 1580 493.467C1547.33 485.2 1537.73 481.6 1531.2 475.333C1522.13 466.533 1522.13 454.267 1531.47 444.133C1538.8 435.867 1547.33 432.933 1565.33 432.267C1588 431.467 1606.8 436.533 1626.67 448.8C1632 452 1636.53 454.533 1636.8 454.267C1637.47 453.733 1653.33 418.4 1653.33 417.733C1653.33 416 1632.53 404.4 1623.6 401.067C1601.2 392.933 1570.27 389.067 1550 392Z" fill="black"/>
<path d="M22.6666 394C22.6666 394.267 42.1333 420.533 65.9999 452.133C89.8666 483.867 109.2 510.4 108.933 511.333C108.533 512.133 88.6666 538.8 64.7999 570.533C40.9333 602.267 21.3333 628.8 21.3333 629.467C21.3333 630.267 34.1333 630.533 50.9333 630.4L80.5333 630L109.333 590.4C125.067 568.667 138.4 550.533 138.933 550C139.333 549.6 152.8 567.2 168.667 589.333C184.667 611.467 198.4 629.867 199.2 630.133C200 630.4 213.867 630.533 229.867 630.4L258.933 630L214 570.4C189.333 537.6 169.467 510.133 169.867 509.467C170.4 508.667 180.4 495.333 192.267 479.733C239.733 416.933 256 395.067 256 394.267C256 393.733 242.8 393.333 226.8 393.333H197.467L192.933 398.933C190.533 402.133 177.467 419.867 164 438.533C141.467 469.6 139.467 472.133 137.733 469.867C136.667 468.4 123.867 450.667 109.067 430.267L82.3999 393.333H52.5333C36.1333 393.333 22.6666 393.6 22.6666 394Z" fill="black"/>
<path d="M273.333 414.667V436L310.4 436.267L347.333 436.667L347.733 533.733L348 630.667L373.733 630.4L399.333 630L399.733 532.933L400 436H436.667H473.333V414.667V393.333H373.333H273.333V414.667Z" fill="black"/>
<path d="M518 394.933C517.6 395.867 517.467 449.2 517.6 513.333L518 630L543.733 630.4L569.333 630.667V584.667V538.667H587.067C602.933 538.667 605.333 539.067 611.6 541.867C620.133 545.867 621.6 548 646 593.333C656.133 612 664.933 628.133 665.6 628.933C666.667 630.267 674 630.667 694 630.667C708.8 630.667 721.2 630.4 721.6 629.867C722 629.467 712.933 612 701.467 591.067C678.933 549.867 673.333 542.4 660.933 536.533L654.267 533.467L660.133 532C693.067 523.2 713.333 493.067 710.133 457.6C708.4 438.267 702.133 424.667 690.133 413.733C677.733 402.4 662.933 396.8 639.333 394.667C618 392.667 518.667 392.933 518 394.933ZM640.267 436.267C654.933 441.067 660.533 449.2 660.533 466C660.667 478.4 658.133 484.933 650.667 490.8C642.533 497.333 633.6 498.667 599.733 498.667H569.333V465.867V433.067L601.733 433.6C625.467 434.133 635.6 434.8 640.267 436.267Z" fill="black"/>
<path d="M846.133 396.933C845.067 399.067 825.333 442 802 492.667C778.8 543.2 755.333 594.267 749.867 606.133C744.4 617.867 740 628.267 740 629.067C740 630.267 746.133 630.667 765.733 630.4L791.333 630L802 605.333C807.867 591.733 813.2 579.867 813.733 578.933C814.533 577.733 827.2 577.333 869.2 577.333H923.6L934.8 603.6L946.133 630L971.733 630.4C985.867 630.533 997.333 630.4 997.333 630C997.333 629.467 947.6 520.8 905.067 428.267L888.933 393.333H868.533H848.133L846.133 396.933ZM887.467 493.6C896.667 515.067 904.8 534 905.467 535.6L906.667 538.667H869.333C843.733 538.667 832 538.267 832 537.2C832 536.4 840.267 516.667 850.267 493.2C862.533 464.4 868.8 451.2 869.6 452.533C870.133 453.6 878.267 472 887.467 493.6Z" fill="black"/>
<path d="M970.667 414.667V436H1007.33H1044L1044.27 532.933L1044.67 630L1070.27 630.4L1096 630.667L1096.27 533.733L1096.67 436.667L1133.73 436.267L1170.8 436L1170.4 414.933L1170 394L1070.4 393.6L970.667 393.333V414.667Z" fill="black"/>
<path d="M1213.73 474.933C1214.13 553.733 1214.27 557.067 1217.07 567.067C1225.47 597.6 1244.93 618.267 1273.73 627.333C1296.4 634.533 1331.73 634.8 1354.27 627.867C1383.87 618.8 1402.93 599.467 1412.13 569.333C1415.2 559.467 1415.2 558.4 1415.73 476.267L1416.13 393.333H1390.67H1365.33V469.6C1365.33 550.933 1364.93 555.6 1358.67 568.133C1354.4 576.4 1347.2 583.6 1338.93 587.6C1332.4 590.8 1329.33 591.333 1317.33 591.733C1300.8 592.4 1291.33 589.733 1281.87 582C1273.6 575.2 1267.2 561.6 1265.47 546.667C1264.53 540 1264 506.267 1264 464.4V393.333H1238.53H1213.2L1213.73 474.933Z" fill="black"/>
<path d="M1947.07 684.267C1902.4 738.8 1865.33 784.267 1864.67 785.333C1864.13 786.4 1865.33 785.733 1867.47 783.867C1885.73 767.333 2028.67 650.667 2029.87 651.067C2030.8 651.467 2038 657.067 2046.13 663.6C2082 692.8 2195.47 784.533 2197.33 785.867C2198.4 786.667 2198 785.733 2196.53 784C2194.27 781.333 2091.73 659.067 2041.47 598.933C2035.2 591.467 2029.6 585.333 2029.07 585.333C2028.67 585.333 1991.73 629.867 1947.07 684.267Z" fill="black"/>
</g>
<defs>
<clipPath id="clip0_606_366">
<rect width="2496" height="948" fill="white"/>
</clipPath>
</defs>
</svg>
