<?xml version="1.0" standalone="no"?>
<!DOCTYPE svg PUBLIC "-//W3C//DTD SVG 20010904//EN"
 "http://www.w3.org/TR/2001/REC-SVG-20010904/DTD/svg10.dtd">
<svg version="1.0" xmlns="http://www.w3.org/2000/svg"
 width="745.000000pt" height="644.000000pt" viewBox="0 0 745.000000 644.000000"
 preserveAspectRatio="xMidYMid meet">

<g transform="translate(0.000000,644.000000) scale(0.100000,-0.100000)"
fill="#F5F5F5" stroke="none">
<path d="M714 6423 c4 -10 29 -74 56 -143 27 -69 165 -420 305 -780 256 -652
614 -1567 630 -1605 l8 -20 4 20 c15 72 95 282 153 400 112 232 237 402 431
590 162 157 332 281 500 365 35 18 66 34 68 36 2 1 -33 94 -77 206 -44 112
-135 343 -202 513 -66 171 -131 337 -144 370 l-24 60 -857 3 c-814 2 -857 1
-851 -15z"/>
<path d="M5091 6418 c-5 -13 -23 -59 -41 -103 -17 -44 -56 -143 -85 -220 -29
-77 -94 -245 -144 -374 -50 -129 -90 -235 -88 -237 2 -2 55 -17 117 -33 220
-57 444 -149 638 -262 126 -73 242 -156 242 -172 0 -7 -44 -104 -98 -217 -54
-113 -107 -226 -117 -252 l-17 -47 -73 55 c-272 205 -715 370 -1110 414 -117
13 -375 13 -490 0 -278 -32 -548 -129 -771 -276 -164 -108 -352 -309 -456
-487 -203 -348 -277 -870 -187 -1322 122 -605 528 -1027 1132 -1176 503 -123
1041 -50 1407 193 142 94 207 181 309 417 l41 94 0 157 0 157 -322 6 c-178 4
-470 7 -650 7 l-327 0 -6 43 c-3 23 -5 143 -3 267 l3 225 775 2 c426 2 864 0
973 -3 l197 -6 0 -1004 0 -1004 -282 2 c-243 3 -283 5 -285 18 -1 8 -11 87
-23 175 l-22 160 -74 -73 -74 -73 0 -215 0 -214 505 0 505 0 0 1255 0 1255
-735 2 c-404 2 -900 3 -1101 3 l-366 0 -110 -285 c-60 -157 -112 -288 -116
-292 -7 -7 -54 111 -367 925 -70 181 -141 365 -160 410 l-33 82 82 54 c247
163 575 232 951 202 76 -7 140 -13 141 -14 2 -1 -22 -70 -52 -152 -30 -83 -66
-180 -79 -217 l-25 -68 853 0 852 1 194 487 c107 268 306 772 441 1120 l247
632 -854 0 -853 0 -9 -22z"/>
<path d="M2660 1416 c0 -2 117 -295 259 -652 l259 -649 583 0 583 0 104 260
c219 549 331 839 327 843 -2 2 -33 -7 -68 -21 -221 -88 -625 -140 -924 -118
-257 19 -521 73 -723 148 -113 42 -283 121 -351 163 -27 16 -49 28 -49 26z"/>
</g>
</svg>
