<svg width="484" height="248" viewBox="0 0 484 248" fill="none" xmlns="http://www.w3.org/2000/svg">
<path d="M117.437 5.93729C118.169 5.94181 118.9 5.94632 119.654 5.95097C121.436 5.96261 123.218 5.98054 125 5.99979C127.708 12.3891 130.414 18.7796 133.118 25.1709C134.038 27.347 134.96 29.5228 135.882 31.6983C137.204 34.8176 138.524 37.9379 139.844 41.0584C140.259 42.0375 140.675 43.0167 141.103 44.0255C141.674 45.3768 141.674 45.3768 142.256 46.7554C142.593 47.5526 142.931 48.3498 143.279 49.1712C144 50.9998 144 50.9998 144 51.9998C142.573 52.006 142.573 52.006 141.117 52.0122C137.51 52.0344 133.904 52.089 130.298 52.1524C128.751 52.1753 127.204 52.1899 125.658 52.1954C105.514 52.2805 87.9366 58.6521 73.1757 72.785C60.8476 85.3343 52.3235 99.9726 51.9999 118C51.9714 118.973 51.9714 118.973 51.9423 119.967C51.3293 142.012 57.2412 160.32 72.6327 176.722C89.9961 193.427 110.233 196.425 133.25 196.687C135.267 196.721 137.284 196.755 139.301 196.791C144.2 196.877 149.1 196.938 154 197C154 184.79 154 172.58 154 160C166.21 160 178.42 160 191 160C199.062 177.277 199.062 177.277 198.859 187.777C198.861 188.913 198.863 190.05 198.865 191.22C198.861 193.592 198.84 195.964 198.803 198.336C198.75 201.955 198.762 205.57 198.781 209.189C198.769 211.51 198.754 213.831 198.734 216.152C198.738 217.223 198.742 218.294 198.746 219.397C198.579 226.999 196.845 231.943 191.593 237.484C183.606 244.709 175.494 244.475 165.25 244.469C163.79 244.476 162.331 244.483 160.871 244.492C157.808 244.505 154.746 244.507 151.683 244.501C148.589 244.496 145.497 244.51 142.403 244.542C119.539 244.777 97.0809 243.954 75.9999 234C75.0309 233.544 75.0309 233.544 74.0424 233.079C63.3201 227.95 53.9035 221.873 44.9999 214C44.4756 213.537 43.9512 213.075 43.411 212.598C22.5446 193.823 7.46961 164.792 5.79677 136.573C5.69621 132.817 5.67055 129.07 5.6874 125.312C5.68989 124.649 5.69237 123.986 5.69494 123.302C5.88684 90.2081 19.1569 61.8929 42.4682 38.4656C62.1792 19.6028 89.8452 5.60912 117.437 5.93729Z" fill="#DE828D"/>
<path d="M453.594 4.69512C461.065 4.17043 466.314 6.12329 472 10.9998C474.032 13.5219 475.591 16.0898 477 18.9998C477.33 19.6598 477.66 20.3198 478 20.9998C478.104 23.675 478.148 26.3246 478.147 29.0003C478.151 29.8369 478.154 30.6735 478.158 31.5354C478.169 34.355 478.173 37.1746 478.177 39.9942C478.183 42.0094 478.19 44.0246 478.197 46.0399C478.214 51.5278 478.225 57.0157 478.233 62.5036C478.238 65.9319 478.244 69.3603 478.251 72.7886C478.27 83.5138 478.284 94.239 478.292 104.964C478.302 117.346 478.328 129.728 478.369 142.11C478.399 151.678 478.414 161.246 478.417 170.814C478.419 176.529 478.428 182.244 478.453 187.959C478.477 193.339 478.481 198.719 478.471 204.1C478.47 206.071 478.476 208.043 478.49 210.015C478.508 212.714 478.501 215.411 478.488 218.11C478.499 218.884 478.51 219.658 478.521 220.456C478.446 226.908 476.738 233.019 472.292 237.859C470.606 239.392 468.876 240.708 467 242C466.113 242.619 465.226 243.237 464.312 243.875C458.423 245.875 452.27 246.177 446.363 244.051C441.952 241.739 438.701 239.26 436 235C435.221 233.772 435.221 233.772 434.425 232.519C432.46 227.666 432.56 223.319 432.568 218.129C432.552 216.504 432.552 216.504 432.537 214.846C432.507 211.275 432.497 207.704 432.488 204.133C432.471 201.653 432.453 199.172 432.434 196.692C432.386 190.172 432.357 183.653 432.33 177.132C432.302 170.476 432.254 163.82 432.209 157.164C432.123 144.109 432.055 131.055 432 118C430.074 121.838 428.15 125.677 426.227 129.517C425.685 130.597 425.143 131.676 424.585 132.789C420.712 140.523 417.008 148.309 413.437 156.187C409.452 164.83 405.425 173.446 401.125 181.937C400.709 182.789 400.293 183.641 399.865 184.518C396.529 190.973 392.844 194.206 386.187 197.312C378.405 198.991 372.597 198.342 365.422 194.875C358.916 189.838 355.211 182.077 351.566 174.875C351.084 173.928 350.602 172.982 350.105 172.007C349.097 170.019 348.093 168.029 347.093 166.037C345.562 162.998 344.001 159.976 342.439 156.953C341.459 155.011 340.48 153.068 339.504 151.125C338.803 149.781 338.803 149.781 338.087 148.409C335.251 142.655 334.442 139.272 336 133C337.072 129.87 337.072 129.87 338.406 126.867C338.899 125.741 339.392 124.614 339.899 123.454C340.428 122.273 340.956 121.092 341.5 119.875C342.317 118.016 343.13 116.156 343.943 114.295C344.492 113.04 345.041 111.786 345.592 110.531C348.245 104.478 350.764 98.3734 353.25 92.2498C353.632 91.3099 354.014 90.37 354.408 89.4017C355.274 87.2686 356.138 85.1347 357 82.9998C357.99 82.9998 358.98 82.9998 360 82.9998C361.743 86.6063 363.484 90.2135 365.225 93.8213C366.099 95.6345 366.975 97.447 367.852 99.2596C371.65 107.137 375.362 115.047 379 123C385.186 111.913 391.224 100.792 396.82 89.3958C403.453 75.9236 410.113 62.4584 417.189 49.2117C419.589 44.7137 421.916 40.1875 424.191 35.6248C425.03 33.963 425.03 33.963 425.885 32.2676C426.968 30.1181 428.039 27.9627 429.096 25.8003C432.779 18.5378 437.563 9.78566 445.086 5.93121C447.882 5.06154 450.697 5.03543 453.594 4.69512Z" fill="#DE828D"/>
<path d="M346 4.9999C351.991 7.03957 356.477 11.8552 360 16.9999C363.604 27.8109 359.855 37.3719 355.25 47.1874C354.171 49.5763 353.093 51.9657 352.016 54.3554C351.491 55.501 350.967 56.6467 350.426 57.827C348.889 61.2456 347.49 64.6968 346.122 68.1857C344.674 71.8181 343.157 75.4204 341.637 79.0233C341.326 79.7604 341.015 80.4975 340.694 81.2569C340.036 82.8158 339.378 84.3746 338.719 85.9333C336.929 90.1691 335.144 94.4068 333.359 98.6444C332.994 99.5116 332.629 100.379 332.252 101.272C328.634 109.863 325.027 118.459 321.437 127.062C321.129 127.8 320.822 128.538 320.504 129.299C316.156 139.729 311.888 150.189 307.664 160.669C301.526 175.895 295.247 191.058 288.875 206.187C288.263 207.644 288.263 207.644 287.639 209.131C286.469 211.916 285.294 214.698 284.117 217.48C283.775 218.296 283.433 219.111 283.08 219.951C274.693 239.701 274.693 239.701 265.187 243.812C258.527 245.999 253.145 245.816 246.75 242.875C241.381 239.915 238.406 236.879 235.687 231.312C233.627 221.383 235.681 213.746 239.562 204.562C240.053 203.358 240.545 202.155 241.05 200.914C242.396 197.619 243.766 194.334 245.142 191.052C246.292 188.302 247.428 185.548 248.565 182.793C252.328 173.676 256.141 164.579 259.958 155.485C261.751 151.21 263.539 146.933 265.328 142.656C271.026 129.036 276.725 115.417 282.44 101.803C283.959 98.1841 285.477 94.5643 286.995 90.9444C287.746 89.1535 288.497 87.3627 289.249 85.572C293.349 75.7978 297.417 66.0115 301.406 56.1913C301.943 54.8732 301.943 54.8732 302.49 53.5285C304.176 49.3839 305.856 45.2371 307.524 41.0849C310.525 33.6587 313.673 26.3321 317.187 19.1327C317.504 18.471 317.82 17.8094 318.146 17.1277C324.126 5.17978 333.732 3.89613 346 4.9999Z" fill="#DE828D"/>
<path d="M142 6.00006C147.55 5.90068 153.1 5.82835 158.65 5.78034C160.536 5.76031 162.421 5.73307 164.307 5.69831C167.027 5.64941 169.748 5.62701 172.469 5.60944C173.302 5.58879 174.136 5.56815 174.995 5.54688C181.823 5.5443 186.712 7.09713 191.874 11.6546C196.781 16.812 199.423 22.5862 202.082 29.1173C202.76 30.7279 202.76 30.7279 203.452 32.371C204.919 35.8666 206.366 39.3707 207.812 42.8751C208.831 45.3102 209.852 47.7447 210.874 50.1785C212.94 55.0995 214.998 60.0236 217.051 64.9498C220.853 74.0574 224.732 83.1314 228.628 92.199C229.739 94.7871 230.846 97.377 231.952 99.9673C235.096 107.322 238.27 114.657 241.59 121.934C242.121 123.105 242.651 124.276 243.198 125.483C244.15 127.571 245.114 129.652 246.095 131.726C246.5 132.616 246.906 133.505 247.324 134.422C247.676 135.171 248.027 135.919 248.389 136.69C250.085 143.104 246.302 149.561 243.852 155.367C243.438 156.361 243.025 157.354 242.599 158.378C241.281 161.546 239.953 164.711 238.625 167.875C237.306 171.033 235.988 174.192 234.672 177.351C233.854 179.313 233.034 181.274 232.211 183.234C230.028 188.453 227.949 193.689 226 199C225.34 199 224.68 199 224 199C223.482 197.775 223.482 197.775 222.953 196.526C214.27 176.02 205.532 155.539 196.749 135.076C194.164 129.052 191.582 123.026 189 117C188.027 114.731 187.055 112.461 186.082 110.191C184.477 106.447 182.872 102.702 181.267 98.9566C180.821 97.9163 180.821 97.9163 180.366 96.8549C179.752 95.4204 179.137 93.9859 178.522 92.5515C176.944 88.8684 175.365 85.1854 173.786 81.5025C170.878 74.7195 167.972 67.936 165.071 61.1497C163.465 57.3911 161.858 53.6331 160.25 49.8751C159.939 49.1487 159.629 48.4223 159.309 47.6739C156.114 40.2048 152.903 32.7444 149.613 25.3165C149.095 24.1468 148.578 22.9771 148.044 21.772C147.082 19.6073 146.117 17.4441 145.147 15.2828C144.729 14.3426 144.31 13.4024 143.879 12.4337C143.514 11.6195 143.148 10.8054 142.772 9.96662C142 8.00006 142 8.00006 142 6.00006Z" fill="#DE828D"/>
<path d="M113.822 98.7729C115.503 98.7731 115.503 98.7731 117.218 98.7733C119.009 98.7888 119.009 98.7888 120.836 98.8046C122.07 98.8074 123.305 98.8103 124.577 98.8132C128.51 98.8244 132.442 98.8495 136.375 98.8749C139.046 98.8861 141.716 98.8941 144.387 98.9023C150.925 98.9243 157.462 98.9577 164 98.9999C168.521 108.564 172.891 118.181 177.082 127.894C177.959 129.924 178.84 131.952 179.721 133.98C180.282 135.276 180.842 136.571 181.402 137.867C182.152 139.601 182.152 139.601 182.918 141.371C184 144 184 144 184 145C173.968 145.093 163.937 145.164 153.905 145.207C149.246 145.228 144.587 145.256 139.929 145.302C135.429 145.345 130.929 145.369 126.429 145.379C124.716 145.387 123.004 145.401 121.291 145.423C103.62 145.637 103.62 145.637 96.0117 139.359C91.0689 133.352 88.2659 127.273 88.5938 119.363C89.7112 112.863 92.7703 107.576 97.9375 103.5C102.842 100.035 107.859 98.7459 113.822 98.7729Z" fill="#DE828D"/>
</svg>
